<svg width="643" height="389" viewBox="0 0 643 389" fill="none" xmlns="http://www.w3.org/2000/svg">
<g filter="url(#filter0_d)">
<path d="M115.618 332.262L4 380.994H639L530.457 332.262H115.618Z" fill="#8C96FF"/>
<path d="M283.813 241.65L262.725 275.911L303.173 323.949H343.961L381.987 275.099L358.448 241.65H283.813Z" fill="#3F4553"/>
<path d="M262.725 275.91C262.725 275.91 172.009 282.925 149.252 306.685C126.495 330.446 137.202 356.245 159.368 356.245C200.17 356.245 286.501 358.741 327.347 356.245L329.784 300.616L262.725 275.91Z" fill="#3F4553"/>
<path d="M379.639 274.729C379.639 274.729 474.638 282.924 497.394 306.685C520.151 330.446 507.038 346.188 487.279 356.245C459.472 370.407 359.245 368.059 307.264 350.855L316.877 300.616L379.639 274.729Z" fill="#3F4553"/>
<path d="M383.818 321.394L377.395 304.795L385.398 301.237C385.398 301.237 384.291 291.416 394.082 289.526C403.873 287.636 415.539 293.956 426.91 288.861C437.395 284.165 450.228 279.838 462.204 286.336C463.976 287.296 464.803 289.408 464.198 291.328L464.153 291.475C463.548 293.41 461.658 294.606 459.634 294.399C455.411 293.971 447.88 294.06 440.437 298.564C427.604 306.361 383.818 321.394 383.818 321.394Z" fill="#FEBBA0"/>
<path d="M458.556 322.338C458.556 322.338 395.16 311.071 261.618 309.328L248.726 326.813C248.726 326.813 281.952 345.804 313.141 352.671C344.33 359.537 451.999 381.157 500.082 347.856L458.556 322.338Z" fill="#3F4553"/>
<path d="M313.141 352.686C281.17 345.302 247.722 326.37 247.722 326.37L249.715 322.988" stroke="#6E758F" stroke-width="1.5925" stroke-miterlimit="10" stroke-linecap="round"/>
<path d="M261.617 309.328C261.617 309.328 408.332 305.976 447.48 328.689" stroke="#6E758F" stroke-width="1.5925" stroke-miterlimit="10" stroke-linecap="round"/>
<path d="M189.596 318.84C189.596 318.84 216.384 306.288 234.696 314.513" stroke="#6E758F" stroke-width="1.5925" stroke-miterlimit="10" stroke-linecap="round"/>
<path d="M251.812 323.92L261.603 309.004L251.812 303.703C251.812 303.703 248.386 295.123 238.787 292.465C229.174 289.822 222.336 294.089 211.394 288.123C201.307 282.615 188.844 277.314 176.41 282.851C174.578 283.664 173.574 285.701 174.032 287.666L174.061 287.813C174.519 289.792 176.306 291.121 178.329 291.077C182.568 290.973 190.084 291.653 197.143 296.733C209.326 305.505 251.812 323.92 251.812 323.92Z" fill="#FEBBA0"/>
<path d="M336.104 309.861L376.213 305.918" stroke="#6E758F" stroke-width="1.5925" stroke-miterlimit="10" stroke-linecap="round"/>
<path d="M285.098 292.479L307.47 308.679" stroke="#6E758F" stroke-width="1.5925" stroke-miterlimit="10" stroke-linecap="round"/>
<path d="M279.323 72.0176C280.268 81.262 288.317 87.996 297.295 87.0804C306.274 86.1648 312.786 77.9246 311.841 68.6949C310.896 59.4505 302.848 52.7166 293.869 53.6322C284.905 54.533 278.393 62.7732 279.323 72.0176Z" fill="#3F4553"/>
<path d="M312.861 78.7349C312.861 78.7349 284.33 74.4228 279.841 47.5018C275.883 23.7114 291.846 4.64666 309.346 1.35352C309.361 1.35352 351.404 66.1531 312.861 78.7349Z" fill="#3F4553"/>
<path d="M313.509 3.91049C311.412 4.94422 309.419 6.30282 307.602 8.06015C291.343 23.6989 301.636 54.0607 316.197 67.7649C324.26 75.3406 336.044 78.87 346.337 75.001C361.385 69.345 366.096 52.3034 363.039 37.1225C360.765 25.8106 354.489 15.1337 345.23 8.4884C335.97 1.85782 323.462 -0.947994 313.509 3.91049Z" fill="#FDBCA0"/>
<path d="M310.807 58.6083C307.957 61.4289 302.995 62.5808 299.185 61.2369C295.375 59.8931 292.244 56.3046 291.255 52.1402C290.369 48.404 291.329 44.151 294.075 41.8621C296.822 39.5731 301.769 39.7208 304.117 42.689L310.807 58.6083Z" fill="#FDBCA0"/>
<path d="M306.643 48.6855L309.64 102.35C310.039 112.274 318.087 120.16 328.011 120.352C339.471 120.588 348.464 110.576 347.002 99.205L340.947 49.3796L306.643 48.6855Z" fill="#FDBCA0"/>
<path d="M345.023 83.0195L344.27 75.6653C344.27 75.6653 329.503 80.199 316.197 67.75C316.197 67.7648 323.862 81.7495 345.023 83.0195Z" fill="#DF8370"/>
<path d="M300.78 40.5762C320.008 39.5868 337.551 26.68 347.239 10.0519C347.239 10.0519 329.547 -6.7387 303.689 3.08165C282.262 11.2037 300.78 40.5762 300.78 40.5762Z" fill="#3F4553"/>
<path d="M302.892 52.9215C300.676 53.143 298.742 51.9469 298.565 50.2486C298.432 48.9639 299.333 47.7677 300.721 47.1475" stroke="#444359" stroke-width="1.1144" stroke-miterlimit="10" stroke-linecap="round"/>
<path d="M349.085 48.7279C349.528 47.3841 350.296 46.3208 351.152 45.3167L351.566 46.6162C350.591 46.247 350.059 45.6858 349.513 45.1394C348.996 44.5635 348.538 43.9876 348.125 43.3674C347.298 42.1417 346.604 40.8421 346.102 39.4688C347.135 40.5172 348.08 41.5953 349.07 42.629C349.572 43.1311 350.044 43.6479 350.561 44.091C351.049 44.5192 351.625 44.9622 352.023 45.0656L353.219 45.3462L352.437 46.3651C351.639 47.4136 350.753 48.3883 349.528 49.0971C349.38 49.1857 349.203 49.1267 349.114 48.9938C349.07 48.8904 349.07 48.8018 349.085 48.7279Z" fill="#444359"/>
<path d="M353.411 53.4244C352.82 54.6353 351.816 55.6838 350.516 56.3188C349.232 56.9834 347.637 57.1163 346.219 56.7028C344.772 56.3041 343.65 55.3589 342.69 54.3843C342.261 53.8527 341.833 53.3063 341.479 52.7451C341.169 52.1396 340.844 51.5489 340.607 50.9287C341.154 51.3422 341.626 51.7852 342.099 52.2282L343.561 53.4392C344.595 54.1185 345.569 54.8569 346.692 55.1227C347.77 55.4623 348.921 55.4475 350.059 55.1374C351.181 54.8125 352.303 54.1775 353.411 53.4244Z" fill="#444359"/>
<path d="M337.949 34.1237C338.525 35.8367 338.85 37.6088 338.732 39.5138C338.658 40.4441 338.437 41.4631 337.743 42.3639C337.034 43.2795 335.838 43.6782 334.789 43.6487C333.711 43.6339 332.648 43.1614 331.924 42.4968C331.171 41.8323 330.581 41.0644 330.137 40.2522C329.251 38.613 328.69 36.9 328.41 35.0983C328.365 34.8177 328.557 34.5519 328.838 34.4929C329.104 34.4486 329.34 34.611 329.414 34.8473L329.429 34.8768C329.931 36.4717 330.595 38.0814 331.452 39.4695C332.308 40.8133 333.475 42.0538 334.848 42.0095C335.528 42.039 336.163 41.8618 336.547 41.3745C336.975 40.9019 337.182 40.134 337.3 39.3514C337.521 37.7712 337.374 36.0287 337.108 34.36V34.3304C337.063 34.0941 337.241 33.8579 337.477 33.8283C337.669 33.7988 337.876 33.9317 337.949 34.1237Z" fill="#444359"/>
<path d="M359.391 30.7712C359.879 32.2184 360.145 33.6951 360.115 35.2752C360.1 36.0579 359.953 36.9144 359.451 37.7266C358.963 38.5831 357.87 39.1148 356.925 39.0705C355.936 39.0557 355.035 38.5388 354.459 37.9334C353.868 37.3131 353.411 36.6486 353.071 35.9398C352.407 34.5221 351.993 33.0749 351.786 31.5538C351.742 31.2733 351.949 31.0074 352.244 30.9631C352.495 30.9336 352.731 31.0813 352.805 31.3176L352.82 31.3471C353.248 32.6762 353.765 34.0348 354.43 35.2162C355.094 36.368 355.995 37.4756 356.984 37.4165C357.486 37.4313 357.885 37.2836 358.151 36.8701C358.446 36.4566 358.594 35.8216 358.683 35.1571C358.83 33.828 358.712 32.3661 358.55 30.9779V30.9484C358.52 30.7121 358.697 30.4906 358.934 30.4463C359.126 30.4463 359.332 30.5792 359.391 30.7712Z" fill="#444359"/>
<path d="M375.341 107.219C375.208 98.2104 345.998 91.0039 345.998 91.0039C344.167 93.027 341.022 96.4383 327.775 96.4383C315.105 96.4383 310.039 93.16 308.061 91.0039H295.523C292.732 91.0039 290.177 92.5988 289.011 95.1388C263.891 150.088 278.009 211.462 283.798 241.632C284.329 244.408 336.754 242.533 360.396 244.408C365.506 244.836 375.843 139.958 375.341 107.219Z" fill="#FEE6C6"/>
<path d="M314.337 184.927C316.936 163.927 320.111 151.331 322.547 155.465C324.703 159.128 323.507 177.499 320.273 195.219C320.288 195.219 313.229 193.92 314.337 184.927Z" fill="#FEBBA0"/>
<path d="M331.497 184.927C328.898 163.927 325.723 151.331 323.286 155.465C321.13 159.128 322.326 177.499 325.56 195.219C325.546 195.219 332.604 193.92 331.497 184.927Z" fill="#FEBBA0"/>
<path d="M418.064 179.711H385.058L390.301 213.233L330.404 184.009C330.197 181.764 329.917 178.988 329.577 176.049C327.318 176.049 325.044 176.049 322.784 176.02C322.799 178.574 322.843 180.302 322.843 180.302C322.843 180.302 321.677 195.719 324.35 200.858C329.43 210.634 381.396 242.119 395.824 245.855C396.725 246.091 397.626 246.268 398.526 246.386C412.452 248.35 421.682 240.538 421.578 226.48L418.064 179.711Z" fill="#FEBBA0"/>
<path d="M315.666 175.902C315.149 179.21 314.691 182.4 314.337 184.925L256.168 211.861L258.619 179.727H225.614L222.114 226.525C222.025 240.584 231.255 248.381 245.166 246.432C246.067 246.299 246.968 246.122 247.868 245.9C262.296 242.164 310.63 216.04 320.952 200.8C324.009 196.296 322.562 181.13 322.562 181.13C322.562 181.13 322.562 179.033 322.503 176.05C320.229 176.006 317.955 175.961 315.666 175.902Z" fill="#FEBBA0"/>
<path d="M267.067 198.054C279.973 159.88 279.87 159.851 295.715 91.0195C285.112 91.7431 284.02 90.0153 275.661 94.357C250.586 107.382 226.973 150.163 220.018 198.054H267.067Z" fill="#FEE6C6"/>
<path d="M381.986 194.289C374.396 167.25 345.998 91.0202 345.998 91.0202C374.396 90.0603 413.146 127.082 422.42 189.342L381.986 194.289Z" fill="#FEE6C6"/>
<path d="M375.356 134.584L369.375 183.73" stroke="#EED2AD" stroke-width="1.5925" stroke-miterlimit="10" stroke-linecap="round"/>
<path d="M272.5 142.646L277.256 195.219" stroke="#EED2AD" stroke-width="1.5925" stroke-miterlimit="10" stroke-linecap="round"/>
</g>
<defs>
<filter id="filter0_d" x="0" y="0" width="643" height="388.994" filterUnits="userSpaceOnUse" color-interpolation-filters="sRGB">
<feFlood flood-opacity="0" result="BackgroundImageFix"/>
<feColorMatrix in="SourceAlpha" type="matrix" values="0 0 0 0 0 0 0 0 0 0 0 0 0 0 0 0 0 0 127 0"/>
<feOffset dy="4"/>
<feGaussianBlur stdDeviation="2"/>
<feColorMatrix type="matrix" values="0 0 0 0 0 0 0 0 0 0 0 0 0 0 0 0 0 0 0.25 0"/>
<feBlend mode="normal" in2="BackgroundImageFix" result="effect1_dropShadow"/>
<feBlend mode="normal" in="SourceGraphic" in2="effect1_dropShadow" result="shape"/>
</filter>
</defs>
</svg>
