<svg width="414" height="330" viewBox="0 0 414 330" fill="none" xmlns="http://www.w3.org/2000/svg">
<mask id="mask0" mask-type="alpha" maskUnits="userSpaceOnUse" x="0" y="-1" width="585" height="331">
<rect y="-1" width="584.159" height="331" fill="white" fill-opacity="0.99"/>
</mask>
<g mask="url(#mask0)">
<path fill-rule="evenodd" clip-rule="evenodd" d="M401.2 109.425C418.102 103.519 436.747 97.1741 452.326 108.8C468.049 120.532 482.386 144.51 483.909 171.144C485.484 198.695 461.412 216.528 460.064 244.108C458.877 268.388 480.564 287.284 477.07 311.039C473.747 333.633 458.367 351.23 443.57 356.242C428.92 361.205 416.065 333.604 401.2 336.738C382.438 340.693 368.222 389.229 351.495 375.654C335.1 362.348 350.041 320.202 346.51 292.354C344.339 275.225 339.64 259.921 334.816 244.108C325.956 215.068 298.438 190.072 306.232 160.328C313.452 132.775 343.672 150.19 362.001 140.366C376.119 132.798 386.615 114.523 401.2 109.425Z" fill="#750EFA"/>
<path fill-rule="evenodd" clip-rule="evenodd" d="M105.002 279.624C114.291 249.131 133.892 223.907 155.923 218.654C176.223 213.814 191.927 245.092 211.693 254.184C225.542 260.554 239.977 255.844 253.533 263.554C273.848 275.109 305.073 277.633 309.31 309.705C313.613 342.272 281.226 357.292 269.601 385.176C260.849 406.168 262.918 436.054 250.139 451.632C236.679 468.04 218.036 471.656 200.683 469.19C183.385 466.732 168.788 452.051 154.036 437.976C136.436 421.185 115.676 408.125 106.87 379.685C97.2311 348.557 95.5836 310.544 105.002 279.624Z" fill="#7000FF" fill-opacity="0.33"/>
<path fill-rule="evenodd" clip-rule="evenodd" d="M490.444 32.7182C513.141 37.851 525.536 -43.5084 545.48 -26.2009C563.983 -10.1448 528.392 32.5819 527.756 65.0972C527.404 83.1082 550.637 99.1167 542.768 112.552C533.301 128.715 515.268 106.71 501.275 110.308C495.341 111.834 492.095 121.135 487.353 126.801C466.483 151.739 452.774 201.572 426.319 199.875C405.393 198.532 385.224 150.163 393.551 120.781C404.252 83.0175 455.358 105.782 464.023 66.8223C473.271 25.2433 409.991 -23.5271 431.951 -51.874C452.999 -79.0433 463.208 26.5592 490.444 32.7182Z" fill="#EB00FF" fill-opacity="0.75"/>
<path fill-rule="evenodd" clip-rule="evenodd" d="M108.014 129.276C118.255 123.55 127.742 110.018 138.626 112.755C148.76 115.304 151.243 135.533 160.23 142.409C172.094 151.485 188.937 146.143 198.858 158.835C208.109 170.67 217.671 192.695 211.111 207.501C201.565 229.051 178.004 228.528 162.211 241.563C156.251 246.482 147.537 251.079 146.853 260.534C145.229 282.964 172.143 321.155 156.069 326.387C137.152 332.544 133.887 276.799 114.921 270.928C104.111 267.581 104.219 297.584 96.0519 307.807C80.7279 326.988 66.2081 363.612 45.9344 357.277C29.7472 352.219 43.5986 312.535 40.2166 290.36C38.1101 276.547 33.1692 264.214 29.7132 250.917C26.0861 236.961 23.0181 223.134 19.1488 209.3C13.3148 188.442 -4.03713 169.061 0.860348 147.759C5.33935 128.278 25.0182 119.693 39.9712 118.732C56.4168 117.674 69.4339 139.764 85.7924 142.299C93.8716 143.551 100.49 133.483 108.014 129.276Z" fill="#EF2626"/>
<path fill-rule="evenodd" clip-rule="evenodd" d="M-37.8537 186.46C-22.8671 180.637 -8.1768 192.781 6.49149 200.262C28.3518 211.41 62.8275 206.589 68.5247 240.71C74.3756 275.75 40.5334 295.795 27.4799 325.96C19.0843 345.361 19.3033 374.536 5.87422 385.487C-7.36516 396.284 -22.8504 379.732 -37.8537 379.237C-52.3511 378.76 -67.1315 392.147 -80.2326 382.65C-94.1588 372.555 -101.257 349.521 -108.031 328.365C-115.863 303.905 -131.48 274.885 -122.176 251.66C-112.23 226.832 -85.3657 242.495 -68.3672 229.351C-55.7266 219.577 -51.5837 191.796 -37.8537 186.46Z" fill="#FF9C28" fill-opacity="0.5"/>
<path fill-rule="evenodd" clip-rule="evenodd" d="M364.701 -58.4975C376.788 -63.072 390.043 -60.2967 401.15 -51.6954C412.496 -42.9096 418.307 -24.3567 427.038 -10.2241C438.516 8.35542 465.563 20.3018 460.745 44.768C455.078 73.5404 419.259 58.246 408.584 83.4804C398.797 106.617 425.505 150.593 410.014 164.691C394.645 178.679 380.979 134.756 364.701 123.419C356.358 117.608 347.235 117.649 338.268 114.724C325.164 110.449 305.669 120.452 299.615 102.186C293.39 83.4011 319.192 64.8663 315.083 44.768C308.024 10.2391 260.888 -5.18947 270.974 -37.9167C280.616 -69.2052 314.969 -22.6384 337.373 -27.5578C348.79 -30.0647 353.506 -54.2603 364.701 -58.4975Z" fill="#EF2626" fill-opacity="0.75"/>
<path fill-rule="evenodd" clip-rule="evenodd" d="M30.9529 -108.41C47.3545 -113.404 63.9372 -115.148 79.8934 -107.494C96.0631 -99.7382 111.717 -86.8115 121.048 -65.1938C130.196 -43.9999 128.751 -17.4272 129.709 7.91873C130.745 35.3163 134.323 63.1648 126.842 88.114C118.291 116.632 104.791 143.648 85.6315 154.917C65.9867 166.472 42.5102 164.291 24.1701 148.504C7.09066 133.803 2.18779 101.396 -7.14731 75.058C-15.1046 52.6067 -24.1277 31.5947 -26.2425 6.26785C-28.6188 -22.1911 -31.2355 -54.3068 -19.8547 -77.1256C-8.50957 -99.8729 12.5964 -102.822 30.9529 -108.41Z" fill="#750EFA"/>
<path fill-rule="evenodd" clip-rule="evenodd" d="M300.378 -22.7769C322.127 -18.9086 340.607 10.6905 348.12 41.9943C355.088 71.0326 339.953 100.549 337.358 131.316C335.267 156.112 342.337 182.349 334.428 204.309C326.101 227.432 309.854 240.056 294.181 251.211C276.715 263.642 258.167 278.592 239.487 271.882C220.357 265.01 203.869 242.774 195.442 215.743C187.659 190.777 195.354 162.287 196.698 134.629C197.901 109.873 193.974 83.4267 202.883 62.5664C211.94 41.3573 229.761 36.1023 244.155 23.503C263.09 6.92767 278.775 -26.6192 300.378 -22.7769Z" fill="#FF9C28"/>
<path fill-rule="evenodd" clip-rule="evenodd" d="M332.985 272.342C360.012 276.01 360.272 201.378 387.077 195.584C405.209 191.665 417.458 230.298 417.119 254.157C416.755 279.706 388.239 291.943 385.347 317.22C383.11 336.764 415.274 357.3 403.825 370.318C389.981 386.06 368.76 360.385 350.57 356.763C344.674 355.589 337.519 351.18 332.985 356.212C312.584 378.853 307.6 439.558 281.126 433.833C258.548 428.95 290.13 377.022 292.612 347.481C293.471 337.253 295.539 325.583 290.923 317.22C275.349 289.004 240.356 278.413 235.631 244.248C231.952 217.638 251.615 174.091 271.943 179.957C302.979 188.913 301.364 268.05 332.985 272.342Z" fill="#EB00FF" fill-opacity="0.5"/>
<path fill-rule="evenodd" clip-rule="evenodd" d="M173.86 -62.3494C186.505 -58.9138 200.19 -66.0073 211.853 -57.7876C223.495 -49.5823 235.886 -35.7414 238.722 -16.6362C241.899 4.76529 227.243 24.1396 227.271 46.0845C227.288 59.8922 235.012 70.5374 238.849 83.0388C245.456 104.567 265.349 125.89 258.259 147.057C251.395 167.551 224.807 141.001 214.04 157.105C200.534 177.307 215.759 235.602 196.97 238.731C176.948 242.065 173.657 189.739 160.873 165.96C155.364 155.713 148.441 148.01 142.788 137.948C138.043 129.501 135.795 118.156 130.109 111.198C120.775 99.7747 107.635 97.5314 99.1895 84.5935C87.4649 66.6316 73.0048 47.2709 71.8612 21.9623C70.8226 -1.02196 83.8335 -20.2627 93.6618 -37.7346C103.596 -55.3953 114.391 -75.6209 129.334 -80.2072C144.544 -84.8756 158.585 -66.4994 173.86 -62.3494Z" fill="#EB00FF" fill-opacity="0.5"/>
<path d="M97.968 208.248V218.616C97.968 219.752 98.264 220.624 98.856 221.232C99.448 221.824 100.28 222.12 101.352 222.12C102.44 222.12 103.28 221.824 103.872 221.232C104.464 220.624 104.76 219.752 104.76 218.616V208.248H108.144V218.592C108.144 220.016 107.832 221.224 107.208 222.216C106.6 223.192 105.776 223.928 104.736 224.424C103.712 224.92 102.568 225.168 101.304 225.168C100.056 225.168 98.92 224.92 97.896 224.424C96.888 223.928 96.088 223.192 95.496 222.216C94.904 221.224 94.608 220.016 94.608 218.592V208.248H97.968ZM113.79 208.248V225H110.43V208.248H113.79ZM133.797 225L131.973 223.2C130.421 224.592 128.525 225.288 126.285 225.288C125.053 225.288 123.965 225.08 123.021 224.664C122.093 224.232 121.373 223.632 120.861 222.864C120.349 222.08 120.093 221.176 120.093 220.152C120.093 219.048 120.405 218.056 121.029 217.176C121.653 216.296 122.573 215.584 123.789 215.04C123.357 214.512 123.045 214.008 122.853 213.528C122.661 213.032 122.565 212.504 122.565 211.944C122.565 211.176 122.765 210.488 123.165 209.88C123.565 209.256 124.133 208.768 124.869 208.416C125.621 208.064 126.493 207.888 127.485 207.888C128.493 207.888 129.357 208.08 130.077 208.464C130.797 208.848 131.333 209.36 131.685 210C132.037 210.64 132.189 211.352 132.141 212.136H128.877C128.893 211.608 128.765 211.208 128.493 210.936C128.221 210.648 127.853 210.504 127.389 210.504C126.941 210.504 126.565 210.64 126.261 210.912C125.973 211.168 125.829 211.504 125.829 211.92C125.829 212.32 125.949 212.72 126.189 213.12C126.429 213.504 126.821 213.984 127.365 214.56L131.589 218.736C131.621 218.704 131.645 218.672 131.661 218.64C131.677 218.608 131.693 218.576 131.709 218.544L133.077 216.264H136.581L134.901 219.216C134.581 219.84 134.237 220.432 133.869 220.992L137.925 225H133.797ZM126.381 222.504C127.693 222.504 128.853 222.04 129.861 221.112L125.733 217.032C124.181 217.72 123.405 218.696 123.405 219.96C123.405 220.68 123.677 221.288 124.221 221.784C124.765 222.264 125.485 222.504 126.381 222.504ZM158.435 208.248L152.291 225H148.211L142.067 208.248H145.667L150.275 221.568L154.859 208.248H158.435ZM161.194 210.12C160.602 210.12 160.106 209.936 159.706 209.568C159.322 209.184 159.13 208.712 159.13 208.152C159.13 207.592 159.322 207.128 159.706 206.76C160.106 206.376 160.602 206.184 161.194 206.184C161.786 206.184 162.274 206.376 162.658 206.76C163.058 207.128 163.258 207.592 163.258 208.152C163.258 208.712 163.058 209.184 162.658 209.568C162.274 209.936 161.786 210.12 161.194 210.12ZM162.85 211.704V225H159.49V211.704H162.85ZM170.297 225.216C169.209 225.216 168.233 225.024 167.369 224.64C166.505 224.24 165.817 223.704 165.305 223.032C164.809 222.36 164.537 221.616 164.489 220.8H167.873C167.937 221.312 168.185 221.736 168.617 222.072C169.065 222.408 169.617 222.576 170.273 222.576C170.913 222.576 171.409 222.448 171.761 222.192C172.129 221.936 172.313 221.608 172.313 221.208C172.313 220.776 172.089 220.456 171.641 220.248C171.209 220.024 170.513 219.784 169.553 219.528C168.561 219.288 167.745 219.04 167.105 218.784C166.481 218.528 165.937 218.136 165.473 217.608C165.025 217.08 164.801 216.368 164.801 215.472C164.801 214.736 165.009 214.064 165.425 213.456C165.857 212.848 166.465 212.368 167.249 212.016C168.049 211.664 168.985 211.488 170.057 211.488C171.641 211.488 172.905 211.888 173.849 212.688C174.793 213.472 175.313 214.536 175.409 215.88H172.193C172.145 215.352 171.921 214.936 171.521 214.632C171.137 214.312 170.617 214.152 169.961 214.152C169.353 214.152 168.881 214.264 168.545 214.488C168.225 214.712 168.065 215.024 168.065 215.424C168.065 215.872 168.289 216.216 168.737 216.456C169.185 216.68 169.881 216.912 170.825 217.152C171.785 217.392 172.577 217.64 173.201 217.896C173.825 218.152 174.361 218.552 174.809 219.096C175.273 219.624 175.513 220.328 175.529 221.208C175.529 221.976 175.313 222.664 174.881 223.272C174.465 223.88 173.857 224.36 173.057 224.712C172.273 225.048 171.353 225.216 170.297 225.216ZM189.88 211.704V225H186.496V223.32C186.064 223.896 185.496 224.352 184.792 224.688C184.104 225.008 183.352 225.168 182.536 225.168C181.496 225.168 180.576 224.952 179.776 224.52C178.976 224.072 178.344 223.424 177.88 222.576C177.432 221.712 177.208 220.688 177.208 219.504V211.704H180.568V219.024C180.568 220.08 180.832 220.896 181.36 221.472C181.888 222.032 182.608 222.312 183.52 222.312C184.448 222.312 185.176 222.032 185.704 221.472C186.232 220.896 186.496 220.08 186.496 219.024V211.704H189.88ZM191.371 218.304C191.371 216.96 191.635 215.768 192.163 214.728C192.707 213.688 193.435 212.888 194.347 212.328C195.275 211.768 196.307 211.488 197.443 211.488C198.435 211.488 199.299 211.688 200.035 212.088C200.787 212.488 201.387 212.992 201.835 213.6V211.704H205.219V225H201.835V223.056C201.403 223.68 200.803 224.2 200.035 224.616C199.283 225.016 198.411 225.216 197.419 225.216C196.299 225.216 195.275 224.928 194.347 224.352C193.435 223.776 192.707 222.968 192.163 221.928C191.635 220.872 191.371 219.664 191.371 218.304ZM201.835 218.352C201.835 217.536 201.675 216.84 201.355 216.264C201.035 215.672 200.603 215.224 200.059 214.92C199.515 214.6 198.931 214.44 198.307 214.44C197.683 214.44 197.107 214.592 196.579 214.896C196.051 215.2 195.619 215.648 195.283 216.24C194.963 216.816 194.803 217.504 194.803 218.304C194.803 219.104 194.963 219.808 195.283 220.416C195.619 221.008 196.051 221.464 196.579 221.784C197.123 222.104 197.699 222.264 198.307 222.264C198.931 222.264 199.515 222.112 200.059 221.808C200.603 221.488 201.035 221.04 201.355 220.464C201.675 219.872 201.835 219.168 201.835 218.352ZM210.9 207.24V225H207.54V207.24H210.9ZM223.875 208.248C225.635 208.248 227.179 208.592 228.507 209.28C229.851 209.968 230.883 210.952 231.603 212.232C232.339 213.496 232.707 214.968 232.707 216.648C232.707 218.328 232.339 219.8 231.603 221.064C230.883 222.312 229.851 223.28 228.507 223.968C227.179 224.656 225.635 225 223.875 225H218.019V208.248H223.875ZM223.755 222.144C225.515 222.144 226.875 221.664 227.835 220.704C228.795 219.744 229.275 218.392 229.275 216.648C229.275 214.904 228.795 213.544 227.835 212.568C226.875 211.576 225.515 211.08 223.755 211.08H221.379V222.144H223.755ZM246.622 218.064C246.622 218.544 246.59 218.976 246.526 219.36H236.806C236.886 220.32 237.222 221.072 237.814 221.616C238.406 222.16 239.134 222.432 239.998 222.432C241.246 222.432 242.134 221.896 242.662 220.824H246.286C245.902 222.104 245.166 223.16 244.078 223.992C242.99 224.808 241.654 225.216 240.07 225.216C238.79 225.216 237.638 224.936 236.614 224.376C235.606 223.8 234.814 222.992 234.238 221.952C233.678 220.912 233.398 219.712 233.398 218.352C233.398 216.976 233.678 215.768 234.238 214.728C234.798 213.688 235.582 212.888 236.59 212.328C237.598 211.768 238.758 211.488 240.07 211.488C241.334 211.488 242.462 211.76 243.454 212.304C244.462 212.848 245.238 213.624 245.782 214.632C246.342 215.624 246.622 216.768 246.622 218.064ZM243.142 217.104C243.126 216.24 242.814 215.552 242.206 215.04C241.598 214.512 240.854 214.248 239.974 214.248C239.142 214.248 238.438 214.504 237.862 215.016C237.302 215.512 236.958 216.208 236.83 217.104H243.142ZM253.202 225.216C252.114 225.216 251.138 225.024 250.274 224.64C249.41 224.24 248.722 223.704 248.21 223.032C247.714 222.36 247.442 221.616 247.394 220.8H250.778C250.842 221.312 251.09 221.736 251.522 222.072C251.97 222.408 252.522 222.576 253.178 222.576C253.818 222.576 254.314 222.448 254.666 222.192C255.034 221.936 255.218 221.608 255.218 221.208C255.218 220.776 254.994 220.456 254.546 220.248C254.114 220.024 253.418 219.784 252.458 219.528C251.466 219.288 250.65 219.04 250.01 218.784C249.386 218.528 248.842 218.136 248.378 217.608C247.93 217.08 247.706 216.368 247.706 215.472C247.706 214.736 247.914 214.064 248.33 213.456C248.762 212.848 249.37 212.368 250.154 212.016C250.954 211.664 251.89 211.488 252.962 211.488C254.546 211.488 255.81 211.888 256.754 212.688C257.698 213.472 258.218 214.536 258.314 215.88H255.098C255.05 215.352 254.826 214.936 254.426 214.632C254.042 214.312 253.522 214.152 252.866 214.152C252.258 214.152 251.786 214.264 251.45 214.488C251.13 214.712 250.97 215.024 250.97 215.424C250.97 215.872 251.194 216.216 251.642 216.456C252.09 216.68 252.786 216.912 253.73 217.152C254.69 217.392 255.482 217.64 256.106 217.896C256.73 218.152 257.266 218.552 257.714 219.096C258.178 219.624 258.418 220.328 258.434 221.208C258.434 221.976 258.218 222.664 257.786 223.272C257.37 223.88 256.762 224.36 255.962 224.712C255.178 225.048 254.258 225.216 253.202 225.216ZM261.937 210.12C261.345 210.12 260.849 209.936 260.449 209.568C260.065 209.184 259.873 208.712 259.873 208.152C259.873 207.592 260.065 207.128 260.449 206.76C260.849 206.376 261.345 206.184 261.937 206.184C262.529 206.184 263.017 206.376 263.401 206.76C263.801 207.128 264.001 207.592 264.001 208.152C264.001 208.712 263.801 209.184 263.401 209.568C263.017 209.936 262.529 210.12 261.937 210.12ZM263.593 211.704V225H260.233V211.704H263.593ZM271.16 211.488C272.152 211.488 273.024 211.688 273.776 212.088C274.528 212.472 275.12 212.976 275.552 213.6V211.704H278.936V225.096C278.936 226.328 278.688 227.424 278.192 228.384C277.696 229.36 276.952 230.128 275.96 230.688C274.968 231.264 273.768 231.552 272.36 231.552C270.472 231.552 268.92 231.112 267.704 230.232C266.504 229.352 265.824 228.152 265.664 226.632H269C269.176 227.24 269.552 227.72 270.128 228.072C270.72 228.44 271.432 228.624 272.264 228.624C273.24 228.624 274.032 228.328 274.64 227.736C275.248 227.16 275.552 226.28 275.552 225.096V223.032C275.12 223.656 274.52 224.176 273.752 224.592C273 225.008 272.136 225.216 271.16 225.216C270.04 225.216 269.016 224.928 268.088 224.352C267.16 223.776 266.424 222.968 265.88 221.928C265.352 220.872 265.088 219.664 265.088 218.304C265.088 216.96 265.352 215.768 265.88 214.728C266.424 213.688 267.152 212.888 268.064 212.328C268.992 211.768 270.024 211.488 271.16 211.488ZM275.552 218.352C275.552 217.536 275.392 216.84 275.072 216.264C274.752 215.672 274.32 215.224 273.776 214.92C273.232 214.6 272.648 214.44 272.024 214.44C271.4 214.44 270.824 214.592 270.296 214.896C269.768 215.2 269.336 215.648 269 216.24C268.68 216.816 268.52 217.504 268.52 218.304C268.52 219.104 268.68 219.808 269 220.416C269.336 221.008 269.768 221.464 270.296 221.784C270.84 222.104 271.416 222.264 272.024 222.264C272.648 222.264 273.232 222.112 273.776 221.808C274.32 221.488 274.752 221.04 275.072 220.464C275.392 219.872 275.552 219.168 275.552 218.352ZM288.626 211.512C290.21 211.512 291.49 212.016 292.466 213.024C293.442 214.016 293.93 215.408 293.93 217.2V225H290.57V217.656C290.57 216.6 290.306 215.792 289.778 215.232C289.25 214.656 288.53 214.368 287.618 214.368C286.69 214.368 285.954 214.656 285.41 215.232C284.882 215.792 284.618 216.6 284.618 217.656V225H281.258V211.704H284.618V213.36C285.066 212.784 285.634 212.336 286.322 212.016C287.026 211.68 287.794 211.512 288.626 211.512ZM308.525 218.064C308.525 218.544 308.493 218.976 308.429 219.36H298.709C298.789 220.32 299.125 221.072 299.717 221.616C300.309 222.16 301.037 222.432 301.901 222.432C303.149 222.432 304.037 221.896 304.565 220.824H308.189C307.805 222.104 307.069 223.16 305.981 223.992C304.893 224.808 303.557 225.216 301.973 225.216C300.693 225.216 299.541 224.936 298.517 224.376C297.509 223.8 296.717 222.992 296.141 221.952C295.581 220.912 295.301 219.712 295.301 218.352C295.301 216.976 295.581 215.768 296.141 214.728C296.701 213.688 297.485 212.888 298.493 212.328C299.501 211.768 300.661 211.488 301.973 211.488C303.237 211.488 304.365 211.76 305.357 212.304C306.365 212.848 307.141 213.624 307.685 214.632C308.245 215.624 308.525 216.768 308.525 218.064ZM305.045 217.104C305.029 216.24 304.717 215.552 304.109 215.04C303.501 214.512 302.757 214.248 301.877 214.248C301.045 214.248 300.341 214.504 299.765 215.016C299.205 215.512 298.861 216.208 298.733 217.104H305.045ZM313.378 213.768C313.81 213.064 314.37 212.512 315.058 212.112C315.762 211.712 316.562 211.512 317.458 211.512V215.04H316.57C315.514 215.04 314.714 215.288 314.17 215.784C313.642 216.28 313.378 217.144 313.378 218.376V225H310.018V211.704H313.378V213.768Z" fill="black"/>
<path d="M178.865 134.728V160H172.709V149.596H163.133V160H156.977V134.728H163.133V144.628H172.709V134.728H178.865ZM184.965 137.824C183.885 137.824 182.997 137.512 182.301 136.888C181.629 136.24 181.293 135.448 181.293 134.512C181.293 133.552 181.629 132.76 182.301 132.136C182.997 131.488 183.885 131.164 184.965 131.164C186.021 131.164 186.885 131.488 187.557 132.136C188.253 132.76 188.601 133.552 188.601 134.512C188.601 135.448 188.253 136.24 187.557 136.888C186.885 137.512 186.021 137.824 184.965 137.824ZM188.025 139.912V160H181.869V139.912H188.025ZM197.67 154.312L193.674 164.644H189.75L191.838 154.312H197.67ZM212.287 134.728V160H206.131V134.728H212.287ZM216.712 134.728H223.012L218.98 144.376H214.84L216.712 134.728ZM250.821 139.696C253.317 139.696 255.297 140.452 256.761 141.964C258.249 143.476 258.993 145.576 258.993 148.264V160H252.873V149.092C252.873 147.796 252.525 146.8 251.829 146.104C251.157 145.384 250.221 145.024 249.021 145.024C247.821 145.024 246.873 145.384 246.177 146.104C245.505 146.8 245.169 147.796 245.169 149.092V160H239.049V149.092C239.049 147.796 238.701 146.8 238.005 146.104C237.333 145.384 236.397 145.024 235.197 145.024C233.997 145.024 233.049 145.384 232.353 146.104C231.681 146.8 231.345 147.796 231.345 149.092V160H225.189V139.912H231.345V142.432C231.969 141.592 232.785 140.932 233.793 140.452C234.801 139.948 235.941 139.696 237.213 139.696C238.725 139.696 240.069 140.02 241.245 140.668C242.445 141.316 243.381 142.24 244.053 143.44C244.749 142.336 245.697 141.436 246.897 140.74C248.097 140.044 249.405 139.696 250.821 139.696ZM143.426 169.728V186.936C143.426 189.6 142.67 191.652 141.158 193.092C139.67 194.532 137.654 195.252 135.11 195.252C132.446 195.252 130.31 194.496 128.702 192.984C127.094 191.472 126.29 189.324 126.29 186.54H132.41C132.41 187.596 132.626 188.4 133.058 188.952C133.49 189.48 134.114 189.744 134.93 189.744C135.674 189.744 136.25 189.504 136.658 189.024C137.066 188.544 137.27 187.848 137.27 186.936V169.728H143.426ZM150.054 172.824C148.974 172.824 148.086 172.512 147.39 171.888C146.718 171.24 146.382 170.448 146.382 169.512C146.382 168.552 146.718 167.76 147.39 167.136C148.086 166.488 148.974 166.164 150.054 166.164C151.11 166.164 151.974 166.488 152.646 167.136C153.342 167.76 153.69 168.552 153.69 169.512C153.69 170.448 153.342 171.24 152.646 171.888C151.974 172.512 151.11 172.824 150.054 172.824ZM153.114 174.912V195H146.958V174.912H153.114ZM162.291 178.26C163.011 177.156 163.911 176.292 164.991 175.668C166.071 175.02 167.271 174.696 168.591 174.696V181.212H166.899C165.363 181.212 164.211 181.548 163.443 182.22C162.675 182.868 162.291 184.02 162.291 185.676V195H156.135V174.912H162.291V178.26ZM168.87 184.92C168.87 182.856 169.254 181.044 170.022 179.484C170.814 177.924 171.882 176.724 173.226 175.884C174.57 175.044 176.07 174.624 177.726 174.624C179.142 174.624 180.378 174.912 181.434 175.488C182.514 176.064 183.342 176.82 183.918 177.756V174.912H190.074V195H183.918V192.156C183.318 193.092 182.478 193.848 181.398 194.424C180.342 195 179.106 195.288 177.69 195.288C176.058 195.288 174.57 194.868 173.226 194.028C171.882 193.164 170.814 191.952 170.022 190.392C169.254 188.808 168.87 186.984 168.87 184.92ZM183.918 184.956C183.918 183.42 183.486 182.208 182.622 181.32C181.782 180.432 180.75 179.988 179.526 179.988C178.302 179.988 177.258 180.432 176.394 181.32C175.554 182.184 175.134 183.384 175.134 184.92C175.134 186.456 175.554 187.68 176.394 188.592C177.258 189.48 178.302 189.924 179.526 189.924C180.75 189.924 181.782 189.48 182.622 188.592C183.486 187.704 183.918 186.492 183.918 184.956ZM205.435 174.696C207.739 174.696 209.587 175.464 210.979 177C212.371 178.512 213.067 180.6 213.067 183.264V195H206.947V184.092C206.947 182.748 206.599 181.704 205.903 180.96C205.207 180.216 204.271 179.844 203.095 179.844C201.919 179.844 200.983 180.216 200.287 180.96C199.591 181.704 199.243 182.748 199.243 184.092V195H193.087V168.36H199.243V177.612C199.867 176.724 200.719 176.016 201.799 175.488C202.879 174.96 204.091 174.696 205.435 174.696ZM250.714 169.728V195H244.558V179.844L238.906 195H233.938L228.25 179.808V195H222.094V169.728H229.366L236.458 187.224L243.478 169.728H250.714ZM252.477 184.92C252.477 182.856 252.861 181.044 253.629 179.484C254.421 177.924 255.489 176.724 256.833 175.884C258.177 175.044 259.677 174.624 261.333 174.624C262.749 174.624 263.985 174.912 265.041 175.488C266.121 176.064 266.949 176.82 267.525 177.756V174.912H273.681V195H267.525V192.156C266.925 193.092 266.085 193.848 265.005 194.424C263.949 195 262.713 195.288 261.297 195.288C259.665 195.288 258.177 194.868 256.833 194.028C255.489 193.164 254.421 191.952 253.629 190.392C252.861 188.808 252.477 186.984 252.477 184.92ZM267.525 184.956C267.525 183.42 267.093 182.208 266.229 181.32C265.389 180.432 264.357 179.988 263.133 179.988C261.909 179.988 260.865 180.432 260.001 181.32C259.161 182.184 258.741 183.384 258.741 184.92C258.741 186.456 259.161 187.68 260.001 188.592C260.865 189.48 261.909 189.924 263.133 189.924C264.357 189.924 265.389 189.48 266.229 188.592C267.093 187.704 267.525 186.492 267.525 184.956ZM295.631 184.632C295.631 185.208 295.595 185.808 295.523 186.432H281.591C281.687 187.68 282.083 188.64 282.779 189.312C283.499 189.96 284.375 190.284 285.407 190.284C286.943 190.284 288.011 189.636 288.611 188.34H295.163C294.827 189.66 294.215 190.848 293.327 191.904C292.463 192.96 291.371 193.788 290.051 194.388C288.731 194.988 287.255 195.288 285.623 195.288C283.655 195.288 281.903 194.868 280.367 194.028C278.831 193.188 277.631 191.988 276.767 190.428C275.903 188.868 275.471 187.044 275.471 184.956C275.471 182.868 275.891 181.044 276.731 179.484C277.595 177.924 278.795 176.724 280.331 175.884C281.867 175.044 283.631 174.624 285.623 174.624C287.567 174.624 289.295 175.032 290.807 175.848C292.319 176.664 293.495 177.828 294.335 179.34C295.199 180.852 295.631 182.616 295.631 184.632ZM289.331 183.012C289.331 181.956 288.971 181.116 288.251 180.492C287.531 179.868 286.631 179.556 285.551 179.556C284.519 179.556 283.643 179.856 282.923 180.456C282.227 181.056 281.795 181.908 281.627 183.012H289.331Z" fill="white"/>
</g>
</svg>
