<svg width="816" height="911" viewBox="0 0 816 911" fill="none" xmlns="http://www.w3.org/2000/svg">
<rect width="816" height="911" fill="white"/>
<g clip-path="url(#clip0)">
<path d="M423.544 486.266C423.544 486.266 423.531 486.266 423.502 486.266C421.777 486.266 367.224 485.988 372.215 455.089C372.248 454.874 372.284 454.659 372.323 454.441C372.398 454.03 372.486 453.614 372.584 453.19C372.771 452.39 372.96 451.593 373.153 450.792C373.277 450.283 373.401 449.774 373.528 449.268C373.646 448.798 373.764 448.328 373.884 447.855C373.999 447.409 374.113 446.962 374.231 446.519C374.234 446.502 374.241 446.489 374.244 446.473C374.463 445.639 374.688 444.806 374.923 443.975C374.953 443.863 374.982 443.75 375.015 443.638C376.717 437.555 378.732 431.562 381.202 425.761C383.897 419.44 387.291 413.757 391.234 408.158C396.964 400.024 403.735 391.123 412.35 385.947C415.675 383.946 419.628 382.689 423.525 383.066C427.422 382.689 431.371 383.946 434.697 385.947C443.311 391.123 450.083 400.024 455.813 408.158C459.756 413.757 463.15 419.44 465.841 425.761C468.899 432.928 471.254 440.39 473.185 447.954C473.387 448.738 473.583 449.526 473.776 450.313C473.783 450.329 473.786 450.346 473.789 450.362C473.9 450.819 474.011 451.275 474.119 451.732C474.168 451.94 474.22 452.145 474.266 452.353C474.335 452.631 474.397 452.912 474.462 453.19C482.034 485.978 425.305 486.266 423.544 486.266Z" fill="url(#paint0_radial)"/>
<ellipse cx="437.294" cy="410.538" rx="6.88441" ry="6.88441" fill="#D7D9FF"/>
<path d="M423.544 486.265C423.544 486.265 423.531 486.265 423.502 486.265C421.777 486.265 367.223 485.987 372.215 455.088C372.248 454.873 372.284 454.658 372.323 454.44C372.398 454.029 372.486 453.613 372.584 453.189C372.77 452.389 372.96 451.592 373.152 450.791C373.277 450.282 373.401 449.773 373.528 449.267C373.646 448.797 373.763 448.327 373.884 447.854C373.999 447.408 374.113 446.961 374.23 446.518C374.234 446.501 374.24 446.488 374.244 446.472C374.462 445.638 374.688 444.805 374.923 443.974C375.044 443.882 375.168 443.789 375.289 443.697C381.038 439.344 387.751 433.423 389.528 428.382C394.961 412.982 405.757 421.764 410.144 426.249C411.539 427.675 413.715 427.959 415.404 426.911C417.681 425.495 420.846 422.763 423.972 417.547C426.305 413.657 431.149 412.119 435.196 414.094C441.74 417.289 452.768 425.465 470.869 445.251C471.705 446.167 472.479 447.067 473.185 447.953C473.387 448.737 473.583 449.525 473.776 450.312C473.782 450.328 473.786 450.345 473.789 450.361C473.9 450.818 474.011 451.274 474.119 451.731C474.168 451.939 474.22 452.144 474.266 452.353C474.334 452.63 474.397 452.911 474.462 453.189C482.034 485.977 425.305 486.265 423.544 486.265Z" fill="#8589EB"/>
<path opacity="0.15" d="M423.544 486.266C423.544 486.266 423.531 486.266 423.502 486.266C421.777 486.266 367.223 485.988 372.215 455.089C372.248 454.874 372.284 454.659 372.323 454.44C372.398 454.03 372.486 453.614 372.584 453.19C372.77 452.39 372.96 451.593 373.152 450.792C373.277 450.283 373.401 449.773 373.528 449.267C376.151 448.722 379.023 449.085 381.189 451.907C381.404 452.185 381.62 452.459 381.842 452.727C382.982 454.103 384.23 455.324 385.621 456.263C386.614 456.934 387.679 457.464 388.833 457.804C390.891 458.416 393.229 458.429 395.921 457.596C399.289 456.557 403.212 454.192 407.845 450.008C421.734 437.463 441.256 446.585 447.636 454.95C451.634 460.189 459.977 459.064 465.443 457.467C466.419 457.182 467.383 456.862 468.321 456.488C469.216 456.131 470.091 455.73 470.934 455.267C471.117 455.168 471.3 455.066 471.479 454.96C471.976 454.669 472.459 454.358 472.933 454.02C473.368 453.709 473.805 453.365 474.054 452.889C474.145 452.72 474.207 452.539 474.266 452.353C474.334 452.631 474.397 452.912 474.462 453.19C482.034 485.978 425.305 486.266 423.544 486.266Z" fill="white"/>
<path opacity="0.15" d="M423.544 486.266C423.544 486.266 423.531 486.266 423.502 486.266C421.777 486.266 367.223 485.989 372.215 455.089C372.248 454.874 372.284 454.659 372.323 454.441C372.398 454.031 372.486 453.614 372.584 453.19C372.77 452.39 372.96 451.593 373.152 450.792C373.277 450.283 373.401 449.774 373.528 449.268C373.646 448.798 373.763 448.328 373.884 447.855C373.999 447.409 374.113 446.962 374.23 446.519C374.234 446.503 374.24 446.489 374.244 446.473C374.462 445.639 374.688 444.806 374.923 443.976C374.952 443.863 374.982 443.751 375.014 443.638C375.106 443.658 375.197 443.678 375.289 443.698C376.602 444.005 377.909 444.604 379.17 445.593C381.189 447.177 383.09 449.761 384.697 453.74C384.968 454.408 385.233 455.119 385.484 455.87C385.53 456.002 385.572 456.131 385.621 456.263C387.055 460.361 389.443 464.658 393.501 466.427C393.899 466.603 394.317 466.752 394.748 466.874C400.018 468.366 406.005 465.455 410.095 462.257C411.412 461.228 412.63 460.067 414.012 459.134C423.24 452.899 434.674 462.313 440.221 469.189C440.479 469.51 440.733 469.834 440.985 470.158C441.932 471.386 442.906 472.355 443.899 473.086C452.644 479.565 462.777 467.909 469.441 457.636C469.964 456.835 470.46 456.042 470.934 455.268C471.669 454.074 472.345 452.923 472.959 451.844C473.221 451.385 473.469 450.938 473.707 450.511C473.733 450.462 473.763 450.412 473.789 450.363C473.9 450.819 474.011 451.275 474.119 451.732C474.168 451.94 474.22 452.145 474.266 452.354C474.334 452.632 474.397 452.913 474.462 453.19C482.034 485.979 425.305 486.266 423.544 486.266Z" fill="white"/>
<path opacity="0.15" d="M423.544 486.266C423.544 486.266 423.531 486.266 423.502 486.266C421.777 486.266 367.223 485.988 372.215 455.088C374.636 453.653 378.242 452.102 381.842 452.727C382.802 452.895 383.763 453.216 384.697 453.739C386.16 454.553 387.568 455.852 388.833 457.804C389.551 458.912 390.224 460.232 390.835 461.79C391.495 463.483 392.38 465.084 393.501 466.427C395.281 468.563 397.656 470.045 400.671 470.214C405.476 470.482 409.863 467.925 413.676 465.296C422.345 459.319 429.731 470.148 438.528 472.374C440.397 472.847 442.187 473.068 443.899 473.085C453.705 473.187 460.905 466.519 465.07 461.217C466.534 459.355 467.625 457.662 468.321 456.488C468.925 455.469 469.235 454.844 469.235 454.844C469.235 454.844 470.669 452.406 472.959 451.844C473.034 451.821 473.113 451.804 473.191 451.791C473.488 451.735 473.799 451.715 474.119 451.731C474.168 451.94 474.22 452.145 474.266 452.353C474.334 452.631 474.397 452.912 474.462 453.19C482.034 485.978 425.305 486.266 423.544 486.266Z" fill="white"/>
<path opacity="0.15" d="M423.544 486.266C423.544 486.266 423.531 486.266 423.502 486.266C421.777 486.266 367.223 485.988 372.215 455.089C372.248 454.874 372.284 454.659 372.323 454.441C372.398 454.03 372.486 453.614 372.584 453.19C372.77 452.39 372.96 451.593 373.152 450.792C373.277 450.283 373.401 449.774 373.528 449.267C373.646 448.798 373.763 448.328 373.884 447.855C373.999 447.409 374.113 446.962 374.23 446.519C374.234 446.502 374.24 446.489 374.244 446.473C375.851 446.013 377.523 445.682 379.17 445.593C383.678 445.345 387.98 446.903 390.182 452.529C391.292 455.37 393.305 456.839 395.921 457.596C397.342 458.009 398.94 458.211 400.671 458.307C405.476 458.575 409.373 455.072 413.676 453.389C433.628 445.583 438.875 458.191 447.348 461.459C455.264 464.512 461.003 463.553 465.07 461.218C466.828 460.209 468.272 458.945 469.441 457.636C470.245 456.743 470.918 455.826 471.479 454.96C472.257 453.753 472.819 452.638 473.191 451.791C473.443 451.226 473.613 450.782 473.707 450.511C473.737 450.428 473.76 450.362 473.776 450.313C473.782 450.329 473.786 450.346 473.789 450.362C473.9 450.819 474.011 451.275 474.119 451.732C474.168 451.94 474.22 452.145 474.266 452.353C474.334 452.631 474.397 452.912 474.462 453.19C482.034 485.978 425.305 486.266 423.544 486.266Z" fill="white"/>
</g>
<path d="M513.762 455.509V415.813H521.584L534.099 438.736L546.669 415.813H554.211V455.509H546.166V430.406L536.948 447.235H531.026L521.808 430.406V455.509H513.762Z" fill="#03174C"/>
<path d="M588.543 456.348C586.346 456.348 584.316 455.956 582.454 455.174C580.591 454.391 578.971 453.31 577.593 451.931C576.215 450.515 575.135 448.856 574.353 446.955C573.608 445.054 573.235 442.985 573.235 440.749C573.235 438.513 573.626 436.463 574.409 434.599C575.191 432.698 576.271 431.039 577.649 429.623C579.064 428.207 580.703 427.107 582.565 426.324C584.465 425.542 586.532 425.15 588.767 425.15C590.964 425.15 592.994 425.542 594.856 426.324C596.719 427.107 598.339 428.207 599.717 429.623C601.095 431.002 602.156 432.642 602.901 434.543C603.684 436.407 604.075 438.457 604.075 440.693C604.075 442.93 603.684 444.998 602.901 446.899C602.119 448.8 601.021 450.459 599.605 451.875C598.227 453.291 596.588 454.391 594.689 455.174C592.826 455.956 590.778 456.348 588.543 456.348ZM588.655 449.303C590.07 449.303 591.337 448.931 592.454 448.185C593.571 447.44 594.447 446.433 595.08 445.166C595.75 443.861 596.085 442.389 596.085 440.749C596.085 439.109 595.75 437.655 595.08 436.388C594.447 435.084 593.571 434.059 592.454 433.313C591.337 432.568 590.07 432.195 588.655 432.195C587.24 432.195 585.973 432.568 584.856 433.313C583.739 434.059 582.845 435.084 582.174 436.388C581.541 437.655 581.224 439.109 581.224 440.749C581.224 442.389 581.541 443.861 582.174 445.166C582.845 446.433 583.739 447.44 584.856 448.185C585.973 448.931 587.24 449.303 588.655 449.303Z" fill="#03174C"/>
<path d="M637.088 456.348C634.89 456.348 632.86 455.956 630.998 455.174C629.136 454.391 627.516 453.31 626.137 451.931C624.759 450.515 623.679 448.856 622.897 446.955C622.152 445.054 621.78 442.985 621.78 440.749C621.78 438.513 622.171 436.463 622.953 434.599C623.735 432.698 624.815 431.039 626.193 429.623C627.609 428.207 629.247 427.107 631.11 426.324C633.009 425.542 635.076 425.15 637.311 425.15C639.509 425.15 641.539 425.542 643.401 426.324C645.263 427.107 646.883 428.207 648.261 429.623C649.639 431.002 650.701 432.642 651.446 434.543C652.228 436.407 652.619 438.457 652.619 440.693C652.619 442.93 652.228 444.998 651.446 446.899C650.664 448.8 649.565 450.459 648.15 451.875C646.771 453.291 645.133 454.391 643.233 455.174C641.371 455.956 639.322 456.348 637.088 456.348ZM637.199 449.303C638.615 449.303 639.881 448.931 640.998 448.185C642.116 447.44 642.991 446.433 643.624 445.166C644.295 443.861 644.63 442.389 644.63 440.749C644.63 439.109 644.295 437.655 643.624 436.388C642.991 435.084 642.116 434.059 640.998 433.313C639.881 432.568 638.615 432.195 637.199 432.195C635.784 432.195 634.518 432.568 633.4 433.313C632.283 434.059 631.389 435.084 630.719 436.388C630.085 437.655 629.769 439.109 629.769 440.749C629.769 442.389 630.085 443.861 630.719 445.166C631.389 446.433 632.283 447.44 633.4 448.185C634.518 448.931 635.784 449.303 637.199 449.303Z" fill="#03174C"/>
<path d="M671.169 455.509V425.989H678.376L678.599 429.791C679.456 428.374 680.629 427.256 682.119 426.436C683.646 425.579 685.378 425.15 687.315 425.15C689.475 425.15 691.356 425.672 692.957 426.716C694.596 427.722 695.863 429.176 696.756 431.077C697.65 432.978 698.097 435.214 698.097 437.786V455.509H690.276V438.792C690.276 436.742 689.81 435.14 688.879 433.984C687.948 432.791 686.663 432.195 685.024 432.195C683.832 432.195 682.789 432.474 681.895 433.034C681.002 433.555 680.294 434.301 679.772 435.27C679.251 436.239 678.99 437.339 678.99 438.569V455.509H671.169Z" fill="#03174C"/>
<path d="M134.471 456.348C132.096 456.348 129.907 455.951 127.903 455.156C125.937 454.325 124.249 453.17 122.839 451.689C121.466 450.172 120.519 448.366 120 446.271L127.736 444.646C128.219 446.127 129.054 447.283 130.241 448.113C131.465 448.944 132.913 449.359 134.582 449.359C135.77 449.359 136.809 449.161 137.699 448.763C138.627 448.33 139.332 447.752 139.814 447.03C140.334 446.307 140.593 445.477 140.593 444.538C140.593 443.346 140.13 442.389 139.202 441.666C138.274 440.908 136.772 440.294 134.694 439.824L132.913 439.445C128.831 438.578 125.826 437.188 123.896 435.273C121.967 433.323 121.002 430.957 121.002 428.176C121.002 426.442 121.354 424.853 122.059 423.409C122.764 421.964 123.729 420.718 124.954 419.67C126.215 418.587 127.681 417.756 129.35 417.178C131.02 416.564 132.82 416.257 134.749 416.257C136.938 416.257 138.979 416.655 140.872 417.449C142.764 418.244 144.36 419.381 145.658 420.862C146.957 422.343 147.829 424.095 148.274 426.117L140.649 427.743C140.204 426.298 139.425 425.196 138.311 424.438C137.235 423.643 135.974 423.246 134.527 423.246C133.525 423.246 132.616 423.445 131.799 423.842C131.02 424.203 130.389 424.727 129.907 425.413C129.462 426.063 129.239 426.804 129.239 427.634C129.239 428.898 129.74 429.874 130.742 430.56C131.744 431.21 133.228 431.752 135.195 432.185L136.976 432.564C141.02 433.431 144.007 434.804 145.936 436.682C147.903 438.56 148.886 440.962 148.886 443.887C148.886 445.729 148.515 447.409 147.773 448.926C147.068 450.443 146.066 451.761 144.768 452.881C143.469 454 141.948 454.867 140.204 455.481C138.46 456.059 136.549 456.348 134.471 456.348Z" fill="#03174C"/>
<path d="M175.393 419.183C175.393 420.013 175.189 420.754 174.781 421.404C174.41 422.054 173.872 422.578 173.167 422.975C172.499 423.336 171.757 423.517 170.94 423.517C170.124 423.517 169.363 423.336 168.658 422.975C167.99 422.578 167.452 422.054 167.044 421.404C166.673 420.754 166.488 420.013 166.488 419.183C166.488 418.352 166.673 417.612 167.044 416.962C167.452 416.311 167.99 415.806 168.658 415.445C169.363 415.047 170.124 414.849 170.94 414.849C171.757 414.849 172.499 415.047 173.167 415.445C173.872 415.806 174.41 416.311 174.781 416.962C175.189 417.612 175.393 418.352 175.393 419.183ZM167.044 455.535V426.93H174.836V455.535H167.044Z" fill="#03174C"/>
<path d="M194.425 455.535V415.12H202.217V455.535H194.425Z" fill="#03174C"/>
<path d="M235.721 456.348C233.531 456.348 231.509 455.987 229.654 455.265C227.836 454.506 226.259 453.459 224.923 452.122C223.587 450.75 222.548 449.143 221.806 447.301C221.064 445.422 220.693 443.382 220.693 441.179C220.693 439.048 221.064 437.061 221.806 435.219C222.548 433.377 223.569 431.788 224.867 430.452C226.203 429.079 227.761 428.014 229.543 427.255C231.324 426.497 233.253 426.117 235.331 426.117C237.483 426.117 239.431 426.479 241.175 427.201C242.956 427.923 244.477 428.953 245.739 430.289C247 431.625 247.965 433.215 248.633 435.057C249.338 436.899 249.691 438.957 249.691 441.233V443.129H228.596C228.93 445.26 229.728 446.939 230.99 448.167C232.251 449.359 233.847 449.955 235.776 449.955C237.112 449.955 238.318 449.648 239.394 449.034C240.507 448.42 241.416 447.535 242.121 446.38L249.078 448.547C248.41 450.172 247.409 451.562 246.073 452.718C244.737 453.874 243.179 454.777 241.398 455.427C239.617 456.041 237.724 456.348 235.721 456.348ZM235.331 431.969C233.624 431.969 232.177 432.51 230.99 433.594C229.839 434.677 229.079 436.158 228.708 438.036H241.676C241.379 436.158 240.656 434.677 239.505 433.594C238.392 432.51 237.001 431.969 235.331 431.969Z" fill="#03174C"/>
<path d="M267.885 455.535V426.93H275.064L275.287 430.614C276.14 429.242 277.309 428.158 278.793 427.363C280.315 426.533 282.04 426.117 283.97 426.117C286.122 426.117 287.996 426.623 289.591 427.634C291.224 428.61 292.485 430.018 293.376 431.86C294.266 433.702 294.712 435.869 294.712 438.361V455.535H286.919V439.337C286.919 437.35 286.456 435.797 285.528 434.677C284.6 433.522 283.32 432.944 281.688 432.944C280.5 432.944 279.461 433.215 278.571 433.756C277.68 434.262 276.975 434.984 276.456 435.923C275.936 436.862 275.677 437.928 275.677 439.12V455.535H267.885Z" fill="#03174C"/>
<path d="M326.219 456.348C324.179 456.348 322.416 455.969 320.932 455.21C319.485 454.416 318.353 453.278 317.537 451.797C316.758 450.316 316.368 448.511 316.368 446.38V433.052H311.359V426.93H316.368V417.178H324.16V426.93H332.175V433.052H324.16V445.459C324.16 446.831 324.457 447.897 325.051 448.655C325.644 449.377 326.553 449.739 327.778 449.739C328.409 449.739 329.077 449.648 329.782 449.468C330.524 449.287 331.229 449.052 331.897 448.763L333.288 454.452C332.323 455.03 331.247 455.481 330.06 455.806C328.872 456.168 327.592 456.348 326.219 456.348Z" fill="#03174C"/>
<path d="M325.788 635.664V649.488C325.788 651.003 326.183 652.165 326.972 652.976C327.762 653.765 328.871 654.16 330.3 654.16C331.751 654.16 332.871 653.765 333.66 652.976C334.45 652.165 334.844 651.003 334.844 649.488V635.664H339.356V649.456C339.356 651.355 338.94 652.965 338.108 654.288C337.298 655.589 336.199 656.571 334.812 657.232C333.447 657.893 331.922 658.224 330.236 658.224C328.572 658.224 327.058 657.893 325.692 657.232C324.348 656.571 323.282 655.589 322.492 654.288C321.703 652.965 321.308 651.355 321.308 649.456V635.664H325.788ZM346.885 635.664V658H342.405V635.664H346.885ZM355.288 646.8C355.288 644.603 355.779 642.64 356.76 640.912C357.763 639.163 359.117 637.808 360.824 636.848C362.552 635.867 364.483 635.376 366.616 635.376C369.112 635.376 371.299 636.016 373.176 637.296C375.053 638.576 376.365 640.347 377.112 642.608H371.96C371.448 641.541 370.723 640.741 369.784 640.208C368.867 639.675 367.8 639.408 366.584 639.408C365.283 639.408 364.12 639.717 363.096 640.336C362.093 640.933 361.304 641.787 360.728 642.896C360.173 644.005 359.896 645.307 359.896 646.8C359.896 648.272 360.173 649.573 360.728 650.704C361.304 651.813 362.093 652.677 363.096 653.296C364.12 653.893 365.283 654.192 366.584 654.192C367.8 654.192 368.867 653.925 369.784 653.392C370.723 652.837 371.448 652.027 371.96 650.96H377.112C376.365 653.243 375.053 655.024 373.176 656.304C371.32 657.563 369.133 658.192 366.616 658.192C364.483 658.192 362.552 657.712 360.824 656.752C359.117 655.771 357.763 654.416 356.76 652.688C355.779 650.96 355.288 648.997 355.288 646.8ZM378.507 649.072C378.507 647.28 378.859 645.691 379.563 644.304C380.288 642.917 381.259 641.851 382.475 641.104C383.712 640.357 385.088 639.984 386.603 639.984C387.925 639.984 389.077 640.251 390.059 640.784C391.061 641.317 391.861 641.989 392.459 642.8V640.272H396.971V658H392.459V655.408C391.883 656.24 391.083 656.933 390.059 657.488C389.056 658.021 387.893 658.288 386.571 658.288C385.077 658.288 383.712 657.904 382.475 657.136C381.259 656.368 380.288 655.291 379.563 653.904C378.859 652.496 378.507 650.885 378.507 649.072ZM392.459 649.136C392.459 648.048 392.245 647.12 391.819 646.352C391.392 645.563 390.816 644.965 390.091 644.56C389.365 644.133 388.587 643.92 387.755 643.92C386.923 643.92 386.155 644.123 385.451 644.528C384.747 644.933 384.171 645.531 383.723 646.32C383.296 647.088 383.083 648.005 383.083 649.072C383.083 650.139 383.296 651.077 383.723 651.888C384.171 652.677 384.747 653.285 385.451 653.712C386.176 654.139 386.944 654.352 387.755 654.352C388.587 654.352 389.365 654.149 390.091 653.744C390.816 653.317 391.392 652.72 391.819 651.952C392.245 651.163 392.459 650.224 392.459 649.136ZM406.85 658.288C405.399 658.288 404.098 658.032 402.946 657.52C401.794 656.987 400.877 656.272 400.194 655.376C399.533 654.48 399.17 653.488 399.106 652.4H403.618C403.703 653.083 404.034 653.648 404.61 654.096C405.207 654.544 405.943 654.768 406.818 654.768C407.671 654.768 408.333 654.597 408.802 654.256C409.293 653.915 409.538 653.477 409.538 652.944C409.538 652.368 409.239 651.941 408.642 651.664C408.066 651.365 407.138 651.045 405.858 650.704C404.535 650.384 403.447 650.053 402.594 649.712C401.762 649.371 401.037 648.848 400.418 648.144C399.821 647.44 399.522 646.491 399.522 645.296C399.522 644.315 399.799 643.419 400.354 642.608C400.93 641.797 401.741 641.157 402.786 640.688C403.853 640.219 405.101 639.984 406.53 639.984C408.642 639.984 410.327 640.517 411.586 641.584C412.845 642.629 413.538 644.048 413.666 645.84H409.378C409.314 645.136 409.015 644.581 408.482 644.176C407.97 643.749 407.277 643.536 406.402 643.536C405.591 643.536 404.962 643.685 404.514 643.984C404.087 644.283 403.874 644.699 403.874 645.232C403.874 645.829 404.173 646.288 404.77 646.608C405.367 646.907 406.295 647.216 407.554 647.536C408.834 647.856 409.89 648.187 410.722 648.528C411.554 648.869 412.269 649.403 412.866 650.128C413.485 650.832 413.805 651.771 413.826 652.944C413.826 653.968 413.538 654.885 412.962 655.696C412.407 656.507 411.597 657.147 410.53 657.616C409.485 658.064 408.258 658.288 406.85 658.288ZM432.704 648.752C432.704 649.392 432.661 649.968 432.576 650.48H419.616C419.722 651.76 420.17 652.763 420.96 653.488C421.749 654.213 422.72 654.576 423.872 654.576C425.536 654.576 426.72 653.861 427.424 652.432H432.256C431.744 654.139 430.762 655.547 429.312 656.656C427.861 657.744 426.08 658.288 423.968 658.288C422.261 658.288 420.725 657.915 419.36 657.168C418.016 656.4 416.96 655.323 416.192 653.936C415.445 652.549 415.072 650.949 415.072 649.136C415.072 647.301 415.445 645.691 416.192 644.304C416.938 642.917 417.984 641.851 419.328 641.104C420.672 640.357 422.218 639.984 423.968 639.984C425.653 639.984 427.157 640.347 428.48 641.072C429.824 641.797 430.858 642.832 431.584 644.176C432.33 645.499 432.704 647.024 432.704 648.752ZM428.064 647.472C428.042 646.32 427.626 645.403 426.816 644.72C426.005 644.016 425.013 643.664 423.84 643.664C422.73 643.664 421.792 644.005 421.024 644.688C420.277 645.349 419.818 646.277 419.648 647.472H428.064ZM448.751 658.224C447.193 658.224 445.785 657.957 444.527 657.424C443.289 656.891 442.308 656.123 441.583 655.12C440.857 654.117 440.484 652.933 440.463 651.568H445.263C445.327 652.485 445.647 653.211 446.223 653.744C446.82 654.277 447.631 654.544 448.655 654.544C449.7 654.544 450.521 654.299 451.119 653.808C451.716 653.296 452.015 652.635 452.015 651.824C452.015 651.163 451.812 650.619 451.407 650.192C451.001 649.765 450.489 649.435 449.871 649.2C449.273 648.944 448.441 648.667 447.375 648.368C445.924 647.941 444.74 647.525 443.823 647.12C442.927 646.693 442.148 646.064 441.487 645.232C440.847 644.379 440.527 643.248 440.527 641.84C440.527 640.517 440.857 639.365 441.519 638.384C442.18 637.403 443.108 636.656 444.303 636.144C445.497 635.611 446.863 635.344 448.399 635.344C450.703 635.344 452.569 635.909 453.999 637.04C455.449 638.149 456.249 639.707 456.399 641.712H451.471C451.428 640.944 451.097 640.315 450.479 639.824C449.881 639.312 449.081 639.056 448.079 639.056C447.204 639.056 446.5 639.28 445.967 639.728C445.455 640.176 445.199 640.827 445.199 641.68C445.199 642.277 445.391 642.779 445.775 643.184C446.18 643.568 446.671 643.888 447.247 644.144C447.844 644.379 448.676 644.656 449.743 644.976C451.193 645.403 452.377 645.829 453.295 646.256C454.212 646.683 455.001 647.323 455.663 648.176C456.324 649.029 456.655 650.149 456.655 651.536C456.655 652.731 456.345 653.84 455.727 654.864C455.108 655.888 454.201 656.709 453.007 657.328C451.812 657.925 450.393 658.224 448.751 658.224ZM464.475 643.952V652.528C464.475 653.125 464.613 653.563 464.891 653.84C465.189 654.096 465.68 654.224 466.363 654.224H468.443V658H465.627C461.851 658 459.963 656.165 459.963 652.496V643.952H457.851V640.272H459.963V635.888H464.475V640.272H468.443V643.952H464.475ZM487.121 640.272V658H482.609V655.76C482.033 656.528 481.276 657.136 480.337 657.584C479.42 658.011 478.417 658.224 477.329 658.224C475.942 658.224 474.716 657.936 473.649 657.36C472.582 656.763 471.74 655.899 471.121 654.768C470.524 653.616 470.225 652.251 470.225 650.672V640.272H474.705V650.032C474.705 651.44 475.057 652.528 475.761 653.296C476.465 654.043 477.425 654.416 478.641 654.416C479.878 654.416 480.849 654.043 481.553 653.296C482.257 652.528 482.609 651.44 482.609 650.032V640.272H487.121ZM489.109 649.072C489.109 647.28 489.461 645.691 490.165 644.304C490.89 642.917 491.872 641.851 493.109 641.104C494.346 640.357 495.722 639.984 497.237 639.984C498.389 639.984 499.488 640.24 500.533 640.752C501.578 641.243 502.41 641.904 503.029 642.736V634.32H507.573V658H503.029V655.376C502.474 656.251 501.696 656.955 500.693 657.488C499.69 658.021 498.528 658.288 497.205 658.288C495.712 658.288 494.346 657.904 493.109 657.136C491.872 656.368 490.89 655.291 490.165 653.904C489.461 652.496 489.109 650.885 489.109 649.072ZM503.061 649.136C503.061 648.048 502.848 647.12 502.421 646.352C501.994 645.563 501.418 644.965 500.693 644.56C499.968 644.133 499.189 643.92 498.357 643.92C497.525 643.92 496.757 644.123 496.053 644.528C495.349 644.933 494.773 645.531 494.325 646.32C493.898 647.088 493.685 648.005 493.685 649.072C493.685 650.139 493.898 651.077 494.325 651.888C494.773 652.677 495.349 653.285 496.053 653.712C496.778 654.139 497.546 654.352 498.357 654.352C499.189 654.352 499.968 654.149 500.693 653.744C501.418 653.317 501.994 652.72 502.421 651.952C502.848 651.163 503.061 650.224 503.061 649.136ZM527.629 640.272L516.653 666.384H511.885L515.725 657.552L508.621 640.272H513.645L518.221 652.656L522.861 640.272H527.629Z" fill="black"/>
<path d="M160.511 533L155.071 523.548H152.113V533H148.237V509.37H156.397C158.21 509.37 159.74 509.687 160.987 510.322C162.256 510.957 163.197 511.807 163.809 512.872C164.443 513.937 164.761 515.127 164.761 516.442C164.761 517.983 164.307 519.389 163.401 520.658C162.517 521.905 161.145 522.755 159.287 523.208L165.135 533H160.511ZM152.113 520.454H156.397C157.847 520.454 158.935 520.091 159.661 519.366C160.409 518.641 160.783 517.666 160.783 516.442C160.783 515.218 160.42 514.266 159.695 513.586C158.969 512.883 157.87 512.532 156.397 512.532H152.113V520.454ZM188.759 523.174C188.759 523.877 188.714 524.511 188.623 525.078H174.309C174.422 526.574 174.978 527.775 175.975 528.682C176.972 529.589 178.196 530.042 179.647 530.042C181.732 530.042 183.206 529.169 184.067 527.424H188.249C187.682 529.147 186.651 530.563 185.155 531.674C183.682 532.762 181.846 533.306 179.647 533.306C177.856 533.306 176.247 532.909 174.819 532.116C173.414 531.3 172.303 530.167 171.487 528.716C170.694 527.243 170.297 525.543 170.297 523.616C170.297 521.689 170.682 520.001 171.453 518.55C172.246 517.077 173.346 515.943 174.751 515.15C176.179 514.357 177.811 513.96 179.647 513.96C181.415 513.96 182.99 514.345 184.373 515.116C185.756 515.887 186.832 516.975 187.603 518.38C188.374 519.763 188.759 521.361 188.759 523.174ZM184.713 521.95C184.69 520.522 184.18 519.377 183.183 518.516C182.186 517.655 180.95 517.224 179.477 517.224C178.14 517.224 176.995 517.655 176.043 518.516C175.091 519.355 174.524 520.499 174.343 521.95H184.713ZM193.151 523.548C193.151 521.667 193.537 520.001 194.307 518.55C195.101 517.099 196.166 515.977 197.503 515.184C198.863 514.368 200.371 513.96 202.025 513.96C203.249 513.96 204.451 514.232 205.629 514.776C206.831 515.297 207.783 516 208.485 516.884V507.84H212.395V533H208.485V530.178C207.851 531.085 206.967 531.833 205.833 532.422C204.723 533.011 203.442 533.306 201.991 533.306C200.359 533.306 198.863 532.898 197.503 532.082C196.166 531.243 195.101 530.087 194.307 528.614C193.537 527.118 193.151 525.429 193.151 523.548ZM208.485 523.616C208.485 522.324 208.213 521.202 207.669 520.25C207.148 519.298 206.457 518.573 205.595 518.074C204.734 517.575 203.805 517.326 202.807 517.326C201.81 517.326 200.881 517.575 200.019 518.074C199.158 518.55 198.455 519.264 197.911 520.216C197.39 521.145 197.129 522.256 197.129 523.548C197.129 524.84 197.39 525.973 197.911 526.948C198.455 527.923 199.158 528.671 200.019 529.192C200.903 529.691 201.833 529.94 202.807 529.94C203.805 529.94 204.734 529.691 205.595 529.192C206.457 528.693 207.148 527.968 207.669 527.016C208.213 526.041 208.485 524.908 208.485 523.616ZM236.526 523.174C236.526 523.877 236.481 524.511 236.39 525.078H222.076C222.19 526.574 222.745 527.775 223.742 528.682C224.74 529.589 225.964 530.042 227.414 530.042C229.5 530.042 230.973 529.169 231.834 527.424H236.016C235.45 529.147 234.418 530.563 232.922 531.674C231.449 532.762 229.613 533.306 227.414 533.306C225.624 533.306 224.014 532.909 222.586 532.116C221.181 531.3 220.07 530.167 219.254 528.716C218.461 527.243 218.064 525.543 218.064 523.616C218.064 521.689 218.45 520.001 219.22 518.55C220.014 517.077 221.113 515.943 222.518 515.15C223.946 514.357 225.578 513.96 227.414 513.96C229.182 513.96 230.758 514.345 232.14 515.116C233.523 515.887 234.6 516.975 235.37 518.38C236.141 519.763 236.526 521.361 236.526 523.174ZM232.48 521.95C232.458 520.522 231.948 519.377 230.95 518.516C229.953 517.655 228.718 517.224 227.244 517.224C225.907 517.224 224.762 517.655 223.81 518.516C222.858 519.355 222.292 520.499 222.11 521.95H232.48ZM249.011 533.306C247.537 533.306 246.211 533.045 245.033 532.524C243.877 531.98 242.959 531.255 242.279 530.348C241.599 529.419 241.236 528.387 241.191 527.254H245.203C245.271 528.047 245.645 528.716 246.325 529.26C247.027 529.781 247.9 530.042 248.943 530.042C250.031 530.042 250.869 529.838 251.459 529.43C252.071 528.999 252.377 528.455 252.377 527.798C252.377 527.095 252.037 526.574 251.357 526.234C250.699 525.894 249.645 525.52 248.195 525.112C246.789 524.727 245.645 524.353 244.761 523.99C243.877 523.627 243.106 523.072 242.449 522.324C241.814 521.576 241.497 520.59 241.497 519.366C241.497 518.369 241.791 517.462 242.381 516.646C242.97 515.807 243.809 515.15 244.897 514.674C246.007 514.198 247.277 513.96 248.705 513.96C250.835 513.96 252.547 514.504 253.839 515.592C255.153 516.657 255.856 518.119 255.947 519.978H252.071C252.003 519.139 251.663 518.471 251.051 517.972C250.439 517.473 249.611 517.224 248.569 517.224C247.549 517.224 246.767 517.417 246.223 517.802C245.679 518.187 245.407 518.697 245.407 519.332C245.407 519.831 245.588 520.25 245.951 520.59C246.313 520.93 246.755 521.202 247.277 521.406C247.798 521.587 248.569 521.825 249.589 522.12C250.949 522.483 252.059 522.857 252.921 523.242C253.805 523.605 254.564 524.149 255.199 524.874C255.833 525.599 256.162 526.563 256.185 527.764C256.185 528.829 255.89 529.781 255.301 530.62C254.711 531.459 253.873 532.116 252.785 532.592C251.719 533.068 250.461 533.306 249.011 533.306ZM264.215 511.784C263.512 511.784 262.923 511.546 262.447 511.07C261.971 510.594 261.733 510.005 261.733 509.302C261.733 508.599 261.971 508.01 262.447 507.534C262.923 507.058 263.512 506.82 264.215 506.82C264.895 506.82 265.473 507.058 265.949 507.534C266.425 508.01 266.663 508.599 266.663 509.302C266.663 510.005 266.425 510.594 265.949 511.07C265.473 511.546 264.895 511.784 264.215 511.784ZM266.119 514.266V533H262.243V514.266H266.119ZM280.626 513.96C282.076 513.96 283.357 514.255 284.468 514.844C285.601 515.411 286.485 516.125 287.12 516.986V514.266H291.03V533.306C291.03 535.029 290.667 536.559 289.942 537.896C289.216 539.256 288.162 540.321 286.78 541.092C285.42 541.863 283.788 542.248 281.884 542.248C279.345 542.248 277.237 541.647 275.56 540.446C273.882 539.267 272.93 537.658 272.704 535.618H276.546C276.84 536.593 277.464 537.375 278.416 537.964C279.39 538.576 280.546 538.882 281.884 538.882C283.448 538.882 284.706 538.406 285.658 537.454C286.632 536.502 287.12 535.119 287.12 533.306V530.178C286.462 531.062 285.567 531.81 284.434 532.422C283.323 533.011 282.054 533.306 280.626 533.306C278.994 533.306 277.498 532.898 276.138 532.082C274.8 531.243 273.735 530.087 272.942 528.614C272.171 527.118 271.786 525.429 271.786 523.548C271.786 521.667 272.171 520.001 272.942 518.55C273.735 517.099 274.8 515.977 276.138 515.184C277.498 514.368 278.994 513.96 280.626 513.96ZM287.12 523.616C287.12 522.324 286.848 521.202 286.304 520.25C285.782 519.298 285.091 518.573 284.23 518.074C283.368 517.575 282.439 517.326 281.442 517.326C280.444 517.326 279.515 517.575 278.654 518.074C277.792 518.55 277.09 519.264 276.546 520.216C276.024 521.145 275.764 522.256 275.764 523.548C275.764 524.84 276.024 525.973 276.546 526.948C277.09 527.923 277.792 528.671 278.654 529.192C279.538 529.691 280.467 529.94 281.442 529.94C282.439 529.94 283.368 529.691 284.23 529.192C285.091 528.693 285.782 527.968 286.304 527.016C286.848 526.041 287.12 524.908 287.12 523.616ZM307.443 513.96C308.916 513.96 310.231 514.266 311.387 514.878C312.565 515.49 313.483 516.397 314.141 517.598C314.798 518.799 315.127 520.25 315.127 521.95V533H311.285V522.528C311.285 520.851 310.865 519.57 310.027 518.686C309.188 517.779 308.043 517.326 306.593 517.326C305.142 517.326 303.986 517.779 303.125 518.686C302.286 519.57 301.867 520.851 301.867 522.528V533H297.991V514.266H301.867V516.408C302.501 515.637 303.306 515.037 304.281 514.606C305.278 514.175 306.332 513.96 307.443 513.96ZM323.913 511.784C323.21 511.784 322.621 511.546 322.145 511.07C321.669 510.594 321.431 510.005 321.431 509.302C321.431 508.599 321.669 508.01 322.145 507.534C322.621 507.058 323.21 506.82 323.913 506.82C324.593 506.82 325.171 507.058 325.647 507.534C326.123 508.01 326.361 508.599 326.361 509.302C326.361 510.005 326.123 510.594 325.647 511.07C325.171 511.546 324.593 511.784 323.913 511.784ZM325.817 514.266V533H321.941V514.266H325.817ZM342.228 513.96C343.701 513.96 345.016 514.266 346.172 514.878C347.35 515.49 348.268 516.397 348.926 517.598C349.583 518.799 349.912 520.25 349.912 521.95V533H346.07V522.528C346.07 520.851 345.65 519.57 344.812 518.686C343.973 517.779 342.828 517.326 341.378 517.326C339.927 517.326 338.771 517.779 337.91 518.686C337.071 519.57 336.652 520.851 336.652 522.528V533H332.776V514.266H336.652V516.408C337.286 515.637 338.091 515.037 339.066 514.606C340.063 514.175 341.117 513.96 342.228 513.96ZM364.274 513.96C365.724 513.96 367.005 514.255 368.116 514.844C369.249 515.411 370.133 516.125 370.768 516.986V514.266H374.678V533.306C374.678 535.029 374.315 536.559 373.59 537.896C372.864 539.256 371.81 540.321 370.428 541.092C369.068 541.863 367.436 542.248 365.532 542.248C362.993 542.248 360.885 541.647 359.208 540.446C357.53 539.267 356.578 537.658 356.352 535.618H360.194C360.488 536.593 361.112 537.375 362.064 537.964C363.038 538.576 364.194 538.882 365.532 538.882C367.096 538.882 368.354 538.406 369.306 537.454C370.28 536.502 370.768 535.119 370.768 533.306V530.178C370.11 531.062 369.215 531.81 368.082 532.422C366.971 533.011 365.702 533.306 364.274 533.306C362.642 533.306 361.146 532.898 359.786 532.082C358.448 531.243 357.383 530.087 356.59 528.614C355.819 527.118 355.434 525.429 355.434 523.548C355.434 521.667 355.819 520.001 356.59 518.55C357.383 517.099 358.448 515.977 359.786 515.184C361.146 514.368 362.642 513.96 364.274 513.96ZM370.768 523.616C370.768 522.324 370.496 521.202 369.952 520.25C369.43 519.298 368.739 518.573 367.878 518.074C367.016 517.575 366.087 517.326 365.09 517.326C364.092 517.326 363.163 517.575 362.302 518.074C361.44 518.55 360.738 519.264 360.194 520.216C359.672 521.145 359.412 522.256 359.412 523.548C359.412 524.84 359.672 525.973 360.194 526.948C360.738 527.923 361.44 528.671 362.302 529.192C363.186 529.691 364.115 529.94 365.09 529.94C366.087 529.94 367.016 529.691 367.878 529.192C368.739 528.693 369.43 527.968 369.952 527.016C370.496 526.041 370.768 524.908 370.768 523.616ZM402.031 513.96C403.459 513.96 404.728 514.266 405.839 514.878C406.972 515.49 407.856 516.397 408.491 517.598C409.148 518.799 409.477 520.25 409.477 521.95V533H405.635V522.528C405.635 520.851 405.215 519.57 404.377 518.686C403.538 517.779 402.393 517.326 400.943 517.326C399.492 517.326 398.336 517.779 397.475 518.686C396.636 519.57 396.217 520.851 396.217 522.528V533H392.341V507.84H396.217V516.442C396.874 515.649 397.701 515.037 398.699 514.606C399.719 514.175 400.829 513.96 402.031 513.96ZM424.417 533.306C422.649 533.306 421.051 532.909 419.623 532.116C418.195 531.3 417.073 530.167 416.257 528.716C415.441 527.243 415.033 525.543 415.033 523.616C415.033 521.712 415.452 520.023 416.291 518.55C417.129 517.077 418.274 515.943 419.725 515.15C421.175 514.357 422.796 513.96 424.587 513.96C426.377 513.96 427.998 514.357 429.449 515.15C430.899 515.943 432.044 517.077 432.883 518.55C433.721 520.023 434.141 521.712 434.141 523.616C434.141 525.52 433.71 527.209 432.849 528.682C431.987 530.155 430.809 531.3 429.313 532.116C427.839 532.909 426.207 533.306 424.417 533.306ZM424.417 529.94C425.414 529.94 426.343 529.702 427.205 529.226C428.089 528.75 428.803 528.036 429.347 527.084C429.891 526.132 430.163 524.976 430.163 523.616C430.163 522.256 429.902 521.111 429.381 520.182C428.859 519.23 428.168 518.516 427.307 518.04C426.445 517.564 425.516 517.326 424.519 517.326C423.521 517.326 422.592 517.564 421.731 518.04C420.892 518.516 420.223 519.23 419.725 520.182C419.226 521.111 418.977 522.256 418.977 523.616C418.977 525.633 419.487 527.197 420.507 528.308C421.549 529.396 422.853 529.94 424.417 529.94ZM465.002 514.266L459.188 533H455.108L451.334 519.162L447.56 533H443.48L437.632 514.266H441.576L445.486 529.328L449.464 514.266H453.51L457.318 529.26L461.194 514.266H465.002ZM497.437 514.266V533H493.561V530.79C492.949 531.561 492.144 532.173 491.147 532.626C490.172 533.057 489.13 533.272 488.019 533.272C486.546 533.272 485.22 532.966 484.041 532.354C482.885 531.742 481.967 530.835 481.287 529.634C480.63 528.433 480.301 526.982 480.301 525.282V514.266H484.143V524.704C484.143 526.381 484.562 527.673 485.401 528.58C486.24 529.464 487.384 529.906 488.835 529.906C490.286 529.906 491.43 529.464 492.269 528.58C493.13 527.673 493.561 526.381 493.561 524.704V514.266H497.437ZM511.221 533.306C509.748 533.306 508.422 533.045 507.243 532.524C506.087 531.98 505.169 531.255 504.489 530.348C503.809 529.419 503.447 528.387 503.401 527.254H507.413C507.481 528.047 507.855 528.716 508.535 529.26C509.238 529.781 510.111 530.042 511.153 530.042C512.241 530.042 513.08 529.838 513.669 529.43C514.281 528.999 514.587 528.455 514.587 527.798C514.587 527.095 514.247 526.574 513.567 526.234C512.91 525.894 511.856 525.52 510.405 525.112C509 524.727 507.855 524.353 506.971 523.99C506.087 523.627 505.317 523.072 504.659 522.324C504.025 521.576 503.707 520.59 503.707 519.366C503.707 518.369 504.002 517.462 504.591 516.646C505.181 515.807 506.019 515.15 507.107 514.674C508.218 514.198 509.487 513.96 510.915 513.96C513.046 513.96 514.757 514.504 516.049 515.592C517.364 516.657 518.067 518.119 518.157 519.978H514.281C514.213 519.139 513.873 518.471 513.261 517.972C512.649 517.473 511.822 517.224 510.779 517.224C509.759 517.224 508.977 517.417 508.433 517.802C507.889 518.187 507.617 518.697 507.617 519.332C507.617 519.831 507.799 520.25 508.161 520.59C508.524 520.93 508.966 521.202 509.487 521.406C510.009 521.587 510.779 521.825 511.799 522.12C513.159 522.483 514.27 522.857 515.131 523.242C516.015 523.605 516.775 524.149 517.409 524.874C518.044 525.599 518.373 526.563 518.395 527.764C518.395 528.829 518.101 529.781 517.511 530.62C516.922 531.459 516.083 532.116 514.995 532.592C513.93 533.068 512.672 533.306 511.221 533.306ZM541.623 523.174C541.623 523.877 541.578 524.511 541.487 525.078H527.173C527.287 526.574 527.842 527.775 528.839 528.682C529.837 529.589 531.061 530.042 532.511 530.042C534.597 530.042 536.07 529.169 536.931 527.424H541.113C540.547 529.147 539.515 530.563 538.019 531.674C536.546 532.762 534.71 533.306 532.511 533.306C530.721 533.306 529.111 532.909 527.683 532.116C526.278 531.3 525.167 530.167 524.351 528.716C523.558 527.243 523.161 525.543 523.161 523.616C523.161 521.689 523.547 520.001 524.317 518.55C525.111 517.077 526.21 515.943 527.615 515.15C529.043 514.357 530.675 513.96 532.511 513.96C534.279 513.96 535.855 514.345 537.237 515.116C538.62 515.887 539.697 516.975 540.467 518.38C541.238 519.763 541.623 521.361 541.623 523.174ZM537.577 521.95C537.555 520.522 537.045 519.377 536.047 518.516C535.05 517.655 533.815 517.224 532.341 517.224C531.004 517.224 529.859 517.655 528.907 518.516C527.955 519.355 527.389 520.499 527.207 521.95H537.577ZM551.184 516.986C551.75 516.034 552.498 515.297 553.428 514.776C554.38 514.232 555.502 513.96 556.794 513.96V517.972H555.808C554.289 517.972 553.133 518.357 552.34 519.128C551.569 519.899 551.184 521.236 551.184 523.14V533H547.308V514.266H551.184V516.986ZM569.026 533.306C567.553 533.306 566.227 533.045 565.048 532.524C563.892 531.98 562.974 531.255 562.294 530.348C561.614 529.419 561.252 528.387 561.206 527.254H565.218C565.286 528.047 565.66 528.716 566.34 529.26C567.043 529.781 567.916 530.042 568.958 530.042C570.046 530.042 570.885 529.838 571.474 529.43C572.086 528.999 572.392 528.455 572.392 527.798C572.392 527.095 572.052 526.574 571.372 526.234C570.715 525.894 569.661 525.52 568.21 525.112C566.805 524.727 565.66 524.353 564.776 523.99C563.892 523.627 563.122 523.072 562.464 522.324C561.83 521.576 561.512 520.59 561.512 519.366C561.512 518.369 561.807 517.462 562.396 516.646C562.986 515.807 563.824 515.15 564.912 514.674C566.023 514.198 567.292 513.96 568.72 513.96C570.851 513.96 572.562 514.504 573.854 515.592C575.169 516.657 575.872 518.119 575.962 519.978H572.086C572.018 519.139 571.678 518.471 571.066 517.972C570.454 517.473 569.627 517.224 568.584 517.224C567.564 517.224 566.782 517.417 566.238 517.802C565.694 518.187 565.422 518.697 565.422 519.332C565.422 519.831 565.604 520.25 565.966 520.59C566.329 520.93 566.771 521.202 567.292 521.406C567.814 521.587 568.584 521.825 569.604 522.12C570.964 522.483 572.075 522.857 572.936 523.242C573.82 523.605 574.58 524.149 575.214 524.874C575.849 525.599 576.178 526.563 576.2 527.764C576.2 528.829 575.906 529.781 575.316 530.62C574.727 531.459 573.888 532.116 572.8 532.592C571.735 533.068 570.477 533.306 569.026 533.306ZM600.509 513.96C601.959 513.96 603.24 514.255 604.351 514.844C605.484 515.411 606.368 516.125 607.003 516.986V514.266H610.913V533.306C610.913 535.029 610.55 536.559 609.825 537.896C609.099 539.256 608.045 540.321 606.663 541.092C605.303 541.863 603.671 542.248 601.767 542.248C599.228 542.248 597.12 541.647 595.443 540.446C593.765 539.267 592.813 537.658 592.587 535.618H596.429C596.723 536.593 597.347 537.375 598.299 537.964C599.273 538.576 600.429 538.882 601.767 538.882C603.331 538.882 604.589 538.406 605.541 537.454C606.515 536.502 607.003 535.119 607.003 533.306V530.178C606.345 531.062 605.45 531.81 604.317 532.422C603.206 533.011 601.937 533.306 600.509 533.306C598.877 533.306 597.381 532.898 596.021 532.082C594.683 531.243 593.618 530.087 592.825 528.614C592.054 527.118 591.669 525.429 591.669 523.548C591.669 521.667 592.054 520.001 592.825 518.55C593.618 517.099 594.683 515.977 596.021 515.184C597.381 514.368 598.877 513.96 600.509 513.96ZM607.003 523.616C607.003 522.324 606.731 521.202 606.187 520.25C605.665 519.298 604.974 518.573 604.113 518.074C603.251 517.575 602.322 517.326 601.325 517.326C600.327 517.326 599.398 517.575 598.537 518.074C597.675 518.55 596.973 519.264 596.429 520.216C595.907 521.145 595.647 522.256 595.647 523.548C595.647 524.84 595.907 525.973 596.429 526.948C596.973 527.923 597.675 528.671 598.537 529.192C599.421 529.691 600.35 529.94 601.325 529.94C602.322 529.94 603.251 529.691 604.113 529.192C604.974 528.693 605.665 527.968 606.187 527.016C606.731 526.041 607.003 524.908 607.003 523.616ZM635.044 523.174C635.044 523.877 634.998 524.511 634.908 525.078H620.594C620.707 526.574 621.262 527.775 622.26 528.682C623.257 529.589 624.481 530.042 625.932 530.042C628.017 530.042 629.49 529.169 630.352 527.424H634.534C633.967 529.147 632.936 530.563 631.44 531.674C629.966 532.762 628.13 533.306 625.932 533.306C624.141 533.306 622.532 532.909 621.104 532.116C619.698 531.3 618.588 530.167 617.772 528.716C616.978 527.243 616.582 525.543 616.582 523.616C616.582 521.689 616.967 520.001 617.738 518.55C618.531 517.077 619.63 515.943 621.036 515.15C622.464 514.357 624.096 513.96 625.932 513.96C627.7 513.96 629.275 514.345 630.658 515.116C632.04 515.887 633.117 516.975 633.888 518.38C634.658 519.763 635.044 521.361 635.044 523.174ZM630.998 521.95C630.975 520.522 630.465 519.377 629.468 518.516C628.47 517.655 627.235 517.224 625.762 517.224C624.424 517.224 623.28 517.655 622.328 518.516C621.376 519.355 620.809 520.499 620.628 521.95H630.998ZM645.25 517.428V527.798C645.25 528.501 645.409 529.011 645.726 529.328C646.066 529.623 646.633 529.77 647.426 529.77H649.806V533H646.746C645.001 533 643.663 532.592 642.734 531.776C641.805 530.96 641.34 529.634 641.34 527.798V517.428H639.13V514.266H641.34V509.608H645.25V514.266H649.806V517.428H645.25ZM664.658 523.548C664.658 521.667 665.044 520.001 665.814 518.55C666.608 517.099 667.673 515.977 669.01 515.184C670.37 514.368 671.866 513.96 673.498 513.96C674.972 513.96 676.252 514.255 677.34 514.844C678.451 515.411 679.335 516.125 679.992 516.986V514.266H683.902V533H679.992V530.212C679.335 531.096 678.44 531.833 677.306 532.422C676.173 533.011 674.881 533.306 673.43 533.306C671.821 533.306 670.348 532.898 669.01 532.082C667.673 531.243 666.608 530.087 665.814 528.614C665.044 527.118 664.658 525.429 664.658 523.548ZM679.992 523.616C679.992 522.324 679.72 521.202 679.176 520.25C678.655 519.298 677.964 518.573 677.102 518.074C676.241 517.575 675.312 517.326 674.314 517.326C673.317 517.326 672.388 517.575 671.526 518.074C670.665 518.55 669.962 519.264 669.418 520.216C668.897 521.145 668.636 522.256 668.636 523.548C668.636 524.84 668.897 525.973 669.418 526.948C669.962 527.923 670.665 528.671 671.526 529.192C672.41 529.691 673.34 529.94 674.314 529.94C675.312 529.94 676.241 529.691 677.102 529.192C677.964 528.693 678.655 527.968 679.176 527.016C679.72 526.041 679.992 524.908 679.992 523.616ZM253.97 556.96C255.42 556.96 256.701 557.255 257.812 557.844C258.945 558.411 259.829 559.125 260.464 559.986V557.266H264.374V576.306C264.374 578.029 264.011 579.559 263.286 580.896C262.56 582.256 261.506 583.321 260.124 584.092C258.764 584.863 257.132 585.248 255.228 585.248C252.689 585.248 250.581 584.647 248.904 583.446C247.226 582.267 246.274 580.658 246.048 578.618H249.89C250.184 579.593 250.808 580.375 251.76 580.964C252.734 581.576 253.89 581.882 255.228 581.882C256.792 581.882 258.05 581.406 259.002 580.454C259.976 579.502 260.464 578.119 260.464 576.306V573.178C259.806 574.062 258.911 574.81 257.778 575.422C256.667 576.011 255.398 576.306 253.97 576.306C252.338 576.306 250.842 575.898 249.482 575.082C248.144 574.243 247.079 573.087 246.286 571.614C245.515 570.118 245.13 568.429 245.13 566.548C245.13 564.667 245.515 563.001 246.286 561.55C247.079 560.099 248.144 558.977 249.482 558.184C250.842 557.368 252.338 556.96 253.97 556.96ZM260.464 566.616C260.464 565.324 260.192 564.202 259.648 563.25C259.126 562.298 258.435 561.573 257.574 561.074C256.712 560.575 255.783 560.326 254.786 560.326C253.788 560.326 252.859 560.575 251.998 561.074C251.136 561.55 250.434 562.264 249.89 563.216C249.368 564.145 249.108 565.256 249.108 566.548C249.108 567.84 249.368 568.973 249.89 569.948C250.434 570.923 251.136 571.671 251.998 572.192C252.882 572.691 253.811 572.94 254.786 572.94C255.783 572.94 256.712 572.691 257.574 572.192C258.435 571.693 259.126 570.968 259.648 570.016C260.192 569.041 260.464 567.908 260.464 566.616ZM279.461 576.306C277.693 576.306 276.095 575.909 274.667 575.116C273.239 574.3 272.117 573.167 271.301 571.716C270.485 570.243 270.077 568.543 270.077 566.616C270.077 564.712 270.496 563.023 271.335 561.55C272.173 560.077 273.318 558.943 274.769 558.15C276.219 557.357 277.84 556.96 279.631 556.96C281.421 556.96 283.042 557.357 284.493 558.15C285.943 558.943 287.088 560.077 287.927 561.55C288.765 563.023 289.185 564.712 289.185 566.616C289.185 568.52 288.754 570.209 287.893 571.682C287.031 573.155 285.853 574.3 284.357 575.116C282.883 575.909 281.251 576.306 279.461 576.306ZM279.461 572.94C280.458 572.94 281.387 572.702 282.249 572.226C283.133 571.75 283.847 571.036 284.391 570.084C284.935 569.132 285.207 567.976 285.207 566.616C285.207 565.256 284.946 564.111 284.425 563.182C283.903 562.23 283.212 561.516 282.351 561.04C281.489 560.564 280.56 560.326 279.563 560.326C278.565 560.326 277.636 560.564 276.775 561.04C275.936 561.516 275.267 562.23 274.769 563.182C274.27 564.111 274.021 565.256 274.021 566.616C274.021 568.633 274.531 570.197 275.551 571.308C276.593 572.396 277.897 572.94 279.461 572.94ZM303.012 576.306C301.244 576.306 299.646 575.909 298.218 575.116C296.79 574.3 295.668 573.167 294.852 571.716C294.036 570.243 293.628 568.543 293.628 566.616C293.628 564.712 294.048 563.023 294.886 561.55C295.725 560.077 296.87 558.943 298.32 558.15C299.771 557.357 301.392 556.96 303.182 556.96C304.973 556.96 306.594 557.357 308.044 558.15C309.495 558.943 310.64 560.077 311.478 561.55C312.317 563.023 312.736 564.712 312.736 566.616C312.736 568.52 312.306 570.209 311.444 571.682C310.583 573.155 309.404 574.3 307.908 575.116C306.435 575.909 304.803 576.306 303.012 576.306ZM303.012 572.94C304.01 572.94 304.939 572.702 305.8 572.226C306.684 571.75 307.398 571.036 307.942 570.084C308.486 569.132 308.758 567.976 308.758 566.616C308.758 565.256 308.498 564.111 307.976 563.182C307.455 562.23 306.764 561.516 305.902 561.04C305.041 560.564 304.112 560.326 303.114 560.326C302.117 560.326 301.188 560.564 300.326 561.04C299.488 561.516 298.819 562.23 298.32 563.182C297.822 564.111 297.572 565.256 297.572 566.616C297.572 568.633 298.082 570.197 299.102 571.308C300.145 572.396 301.448 572.94 303.012 572.94ZM317.146 566.548C317.146 564.667 317.531 563.001 318.302 561.55C319.095 560.099 320.161 558.977 321.498 558.184C322.858 557.368 324.365 556.96 326.02 556.96C327.244 556.96 328.445 557.232 329.624 557.776C330.825 558.297 331.777 559 332.48 559.884V550.84H336.39V576H332.48V573.178C331.845 574.085 330.961 574.833 329.828 575.422C328.717 576.011 327.437 576.306 325.986 576.306C324.354 576.306 322.858 575.898 321.498 575.082C320.161 574.243 319.095 573.087 318.302 571.614C317.531 570.118 317.146 568.429 317.146 566.548ZM332.48 566.616C332.48 565.324 332.208 564.202 331.664 563.25C331.143 562.298 330.451 561.573 329.59 561.074C328.729 560.575 327.799 560.326 326.802 560.326C325.805 560.326 324.875 560.575 324.014 561.074C323.153 561.55 322.45 562.264 321.906 563.216C321.385 564.145 321.124 565.256 321.124 566.548C321.124 567.84 321.385 568.973 321.906 569.948C322.45 570.923 323.153 571.671 324.014 572.192C324.898 572.691 325.827 572.94 326.802 572.94C327.799 572.94 328.729 572.691 329.59 572.192C330.451 571.693 331.143 570.968 331.664 570.016C332.208 569.041 332.48 567.908 332.48 566.616ZM363.505 556.96C364.978 556.96 366.293 557.266 367.449 557.878C368.628 558.49 369.546 559.397 370.203 560.598C370.86 561.799 371.189 563.25 371.189 564.95V576H367.347V565.528C367.347 563.851 366.928 562.57 366.089 561.686C365.25 560.779 364.106 560.326 362.655 560.326C361.204 560.326 360.048 560.779 359.187 561.686C358.348 562.57 357.929 563.851 357.929 565.528V576H354.053V557.266H357.929V559.408C358.564 558.637 359.368 558.037 360.343 557.606C361.34 557.175 362.394 556.96 363.505 556.96ZM379.975 554.784C379.272 554.784 378.683 554.546 378.207 554.07C377.731 553.594 377.493 553.005 377.493 552.302C377.493 551.599 377.731 551.01 378.207 550.534C378.683 550.058 379.272 549.82 379.975 549.82C380.655 549.82 381.233 550.058 381.709 550.534C382.185 551.01 382.423 551.599 382.423 552.302C382.423 553.005 382.185 553.594 381.709 554.07C381.233 554.546 380.655 554.784 379.975 554.784ZM381.879 557.266V576H378.003V557.266H381.879ZM396.386 556.96C397.836 556.96 399.117 557.255 400.228 557.844C401.361 558.411 402.245 559.125 402.88 559.986V557.266H406.79V576.306C406.79 578.029 406.427 579.559 405.702 580.896C404.976 582.256 403.922 583.321 402.54 584.092C401.18 584.863 399.548 585.248 397.644 585.248C395.105 585.248 392.997 584.647 391.32 583.446C389.642 582.267 388.69 580.658 388.464 578.618H392.306C392.6 579.593 393.224 580.375 394.176 580.964C395.15 581.576 396.306 581.882 397.644 581.882C399.208 581.882 400.466 581.406 401.418 580.454C402.392 579.502 402.88 578.119 402.88 576.306V573.178C402.222 574.062 401.327 574.81 400.194 575.422C399.083 576.011 397.814 576.306 396.386 576.306C394.754 576.306 393.258 575.898 391.898 575.082C390.56 574.243 389.495 573.087 388.702 571.614C387.931 570.118 387.546 568.429 387.546 566.548C387.546 564.667 387.931 563.001 388.702 561.55C389.495 560.099 390.56 558.977 391.898 558.184C393.258 557.368 394.754 556.96 396.386 556.96ZM402.88 566.616C402.88 565.324 402.608 564.202 402.064 563.25C401.542 562.298 400.851 561.573 399.99 561.074C399.128 560.575 398.199 560.326 397.202 560.326C396.204 560.326 395.275 560.575 394.414 561.074C393.552 561.55 392.85 562.264 392.306 563.216C391.784 564.145 391.524 565.256 391.524 566.548C391.524 567.84 391.784 568.973 392.306 569.948C392.85 570.923 393.552 571.671 394.414 572.192C395.298 572.691 396.227 572.94 397.202 572.94C398.199 572.94 399.128 572.691 399.99 572.192C400.851 571.693 401.542 570.968 402.064 570.016C402.608 569.041 402.88 567.908 402.88 566.616ZM423.441 556.96C424.869 556.96 426.138 557.266 427.249 557.878C428.382 558.49 429.266 559.397 429.901 560.598C430.558 561.799 430.887 563.25 430.887 564.95V576H427.045V565.528C427.045 563.851 426.625 562.57 425.787 561.686C424.948 560.779 423.803 560.326 422.353 560.326C420.902 560.326 419.746 560.779 418.885 561.686C418.046 562.57 417.627 563.851 417.627 565.528V576H413.751V550.84H417.627V559.442C418.284 558.649 419.111 558.037 420.109 557.606C421.129 557.175 422.239 556.96 423.441 556.96ZM442.223 560.428V570.798C442.223 571.501 442.381 572.011 442.699 572.328C443.039 572.623 443.605 572.77 444.399 572.77H446.779V576H443.719C441.973 576 440.636 575.592 439.707 574.776C438.777 573.96 438.313 572.634 438.313 570.798V560.428H436.103V557.266H438.313V552.608H442.223V557.266H446.779V560.428H442.223ZM452.833 552.37H457.049L453.479 560.462H450.759L452.833 552.37ZM469.126 576.306C467.652 576.306 466.326 576.045 465.148 575.524C463.992 574.98 463.074 574.255 462.394 573.348C461.714 572.419 461.351 571.387 461.306 570.254H465.318C465.386 571.047 465.76 571.716 466.44 572.26C467.142 572.781 468.015 573.042 469.058 573.042C470.146 573.042 470.984 572.838 471.574 572.43C472.186 571.999 472.492 571.455 472.492 570.798C472.492 570.095 472.152 569.574 471.472 569.234C470.814 568.894 469.76 568.52 468.31 568.112C466.904 567.727 465.76 567.353 464.876 566.99C463.992 566.627 463.221 566.072 462.564 565.324C461.929 564.576 461.612 563.59 461.612 562.366C461.612 561.369 461.906 560.462 462.496 559.646C463.085 558.807 463.924 558.15 465.012 557.674C466.122 557.198 467.392 556.96 468.82 556.96C470.95 556.96 472.662 557.504 473.954 558.592C475.268 559.657 475.971 561.119 476.062 562.978H472.186C472.118 562.139 471.778 561.471 471.166 560.972C470.554 560.473 469.726 560.224 468.684 560.224C467.664 560.224 466.882 560.417 466.338 560.802C465.794 561.187 465.522 561.697 465.522 562.332C465.522 562.831 465.703 563.25 466.066 563.59C466.428 563.93 466.87 564.202 467.392 564.406C467.913 564.587 468.684 564.825 469.704 565.12C471.064 565.483 472.174 565.857 473.036 566.242C473.92 566.605 474.679 567.149 475.314 567.874C475.948 568.599 476.277 569.563 476.3 570.764C476.3 571.829 476.005 572.781 475.416 573.62C474.826 574.459 473.988 575.116 472.9 575.592C471.834 576.068 470.576 576.306 469.126 576.306ZM499.86 576.306C498.386 576.306 497.06 576.045 495.882 575.524C494.726 574.98 493.808 574.255 493.128 573.348C492.448 572.419 492.085 571.387 492.04 570.254H496.052C496.12 571.047 496.494 571.716 497.174 572.26C497.876 572.781 498.749 573.042 499.792 573.042C500.88 573.042 501.718 572.838 502.308 572.43C502.92 571.999 503.226 571.455 503.226 570.798C503.226 570.095 502.886 569.574 502.206 569.234C501.548 568.894 500.494 568.52 499.044 568.112C497.638 567.727 496.494 567.353 495.61 566.99C494.726 566.627 493.955 566.072 493.298 565.324C492.663 564.576 492.346 563.59 492.346 562.366C492.346 561.369 492.64 560.462 493.23 559.646C493.819 558.807 494.658 558.15 495.746 557.674C496.856 557.198 498.126 556.96 499.554 556.96C501.684 556.96 503.396 557.504 504.688 558.592C506.002 559.657 506.705 561.119 506.796 562.978H502.92C502.852 562.139 502.512 561.471 501.9 560.972C501.288 560.473 500.46 560.224 499.418 560.224C498.398 560.224 497.616 560.417 497.072 560.802C496.528 561.187 496.256 561.697 496.256 562.332C496.256 562.831 496.437 563.25 496.8 563.59C497.162 563.93 497.604 564.202 498.126 564.406C498.647 564.587 499.418 564.825 500.438 565.12C501.798 565.483 502.908 565.857 503.77 566.242C504.654 566.605 505.413 567.149 506.048 567.874C506.682 568.599 507.011 569.563 507.034 570.764C507.034 571.829 506.739 572.781 506.15 573.62C505.56 574.459 504.722 575.116 503.634 575.592C502.568 576.068 501.31 576.306 499.86 576.306ZM516.968 550.84V576H513.092V550.84H516.968ZM541.097 566.174C541.097 566.877 541.051 567.511 540.961 568.078H526.647C526.76 569.574 527.315 570.775 528.313 571.682C529.31 572.589 530.534 573.042 531.985 573.042C534.07 573.042 535.543 572.169 536.405 570.424H540.587C540.02 572.147 538.989 573.563 537.493 574.674C536.019 575.762 534.183 576.306 531.985 576.306C530.194 576.306 528.585 575.909 527.157 575.116C525.751 574.3 524.641 573.167 523.825 571.716C523.031 570.243 522.635 568.543 522.635 566.616C522.635 564.689 523.02 563.001 523.791 561.55C524.584 560.077 525.683 558.943 527.089 558.15C528.517 557.357 530.149 556.96 531.985 556.96C533.753 556.96 535.328 557.345 536.711 558.116C538.093 558.887 539.17 559.975 539.941 561.38C540.711 562.763 541.097 564.361 541.097 566.174ZM537.051 564.95C537.028 563.522 536.518 562.377 535.521 561.516C534.523 560.655 533.288 560.224 531.815 560.224C530.477 560.224 529.333 560.655 528.381 561.516C527.429 562.355 526.862 563.499 526.681 564.95H537.051ZM563.951 566.174C563.951 566.877 563.906 567.511 563.815 568.078H549.501C549.614 569.574 550.17 570.775 551.167 571.682C552.164 572.589 553.388 573.042 554.839 573.042C556.924 573.042 558.398 572.169 559.259 570.424H563.441C562.874 572.147 561.843 573.563 560.347 574.674C558.874 575.762 557.038 576.306 554.839 576.306C553.048 576.306 551.439 575.909 550.011 575.116C548.606 574.3 547.495 573.167 546.679 571.716C545.886 570.243 545.489 568.543 545.489 566.616C545.489 564.689 545.874 563.001 546.645 561.55C547.438 560.077 548.538 558.943 549.943 558.15C551.371 557.357 553.003 556.96 554.839 556.96C556.607 556.96 558.182 557.345 559.565 558.116C560.948 558.887 562.024 559.975 562.795 561.38C563.566 562.763 563.951 564.361 563.951 566.174ZM559.905 564.95C559.882 563.522 559.372 562.377 558.375 561.516C557.378 560.655 556.142 560.224 554.669 560.224C553.332 560.224 552.187 560.655 551.235 561.516C550.283 562.355 549.716 563.499 549.535 564.95H559.905ZM573.511 560.02C574.169 559.159 575.064 558.433 576.197 557.844C577.331 557.255 578.611 556.96 580.039 556.96C581.671 556.96 583.156 557.368 584.493 558.184C585.853 558.977 586.919 560.099 587.689 561.55C588.46 563.001 588.845 564.667 588.845 566.548C588.845 568.429 588.46 570.118 587.689 571.614C586.919 573.087 585.853 574.243 584.493 575.082C583.156 575.898 581.671 576.306 580.039 576.306C578.611 576.306 577.342 576.023 576.231 575.456C575.121 574.867 574.214 574.141 573.511 573.28V584.908H569.635V557.266H573.511V560.02ZM584.901 566.548C584.901 565.256 584.629 564.145 584.085 563.216C583.564 562.264 582.861 561.55 581.977 561.074C581.116 560.575 580.187 560.326 579.189 560.326C578.215 560.326 577.285 560.575 576.401 561.074C575.54 561.573 574.837 562.298 574.293 563.25C573.772 564.202 573.511 565.324 573.511 566.616C573.511 567.908 573.772 569.041 574.293 570.016C574.837 570.968 575.54 571.693 576.401 572.192C577.285 572.691 578.215 572.94 579.189 572.94C580.187 572.94 581.116 572.691 581.977 572.192C582.861 571.671 583.564 570.923 584.085 569.948C584.629 568.973 584.901 567.84 584.901 566.548Z" fill="black"/>
<defs>
<radialGradient id="paint0_radial" cx="0" cy="0" r="1" gradientUnits="userSpaceOnUse" gradientTransform="translate(423.524 434.633) scale(51.3145 51.9572)">
<stop offset="2.23767e-07" stop-color="#8485E0"/>
<stop offset="1" stop-color="#7680FC"/>
</radialGradient>
<clipPath id="clip0">
<rect width="103.266" height="103.266" fill="white" transform="translate(371.892 383)"/>
</clipPath>
</defs>
</svg>
