<svg width="245" height="131" viewBox="0 0 245 131" fill="none" xmlns="http://www.w3.org/2000/svg">
<g clip-path="url(#clip0)">
<path d="M129.068 43.2284C129.068 43.2284 129.062 43.2284 129.05 43.2284C128.328 43.2284 105.491 43.1121 107.58 30.1771C107.594 30.0871 107.609 29.9972 107.625 29.9058C107.657 29.7341 107.694 29.5596 107.735 29.3824C107.813 29.0473 107.892 28.7136 107.973 28.3785C108.025 28.1653 108.077 27.9521 108.13 27.7402C108.179 27.5436 108.229 27.347 108.279 27.149C108.327 26.9621 108.375 26.7752 108.424 26.5896C108.425 26.5827 108.428 26.5772 108.43 26.5703C108.521 26.2213 108.616 25.8724 108.714 25.5249C108.726 25.4778 108.739 25.4307 108.752 25.3837C109.465 22.8374 110.308 20.3285 111.342 17.8999C112.47 15.2539 113.891 12.8752 115.542 10.531C117.94 7.12629 120.775 3.40032 124.381 1.23342C125.773 0.395736 127.428 -0.130413 129.059 0.0274319C130.691 -0.130413 132.344 0.395736 133.736 1.23342C137.342 3.40032 140.177 7.12629 142.575 10.531C144.226 12.8752 145.647 15.2539 146.774 17.8999C148.054 20.9003 149.04 24.024 149.848 27.1906C149.932 27.5187 150.015 27.8482 150.095 28.1778C150.098 28.1847 150.099 28.1916 150.101 28.1986C150.147 28.3896 150.194 28.5807 150.239 28.7718C150.259 28.859 150.281 28.9449 150.3 29.0321C150.329 29.1484 150.355 29.2661 150.382 29.3824C153.552 43.1079 129.805 43.2284 129.068 43.2284Z" fill="url(#paint0_radial)"/>
<circle cx="134.823" cy="11.5279" r="2.88191" fill="#D7D9FF"/>
<path d="M129.068 43.2284C129.068 43.2284 129.062 43.2284 129.05 43.2284C128.328 43.2284 105.491 43.1121 107.58 30.1771C107.594 30.0871 107.609 29.9971 107.625 29.9058C107.657 29.7341 107.694 29.5596 107.735 29.3824C107.813 29.0473 107.892 28.7136 107.973 28.3785C108.025 28.1653 108.077 27.9521 108.13 27.7402C108.179 27.5436 108.229 27.347 108.279 27.149C108.327 26.9621 108.375 26.7752 108.424 26.5896C108.425 26.5827 108.428 26.5772 108.43 26.5703C108.521 26.2213 108.616 25.8724 108.714 25.5249C108.765 25.4861 108.817 25.4473 108.867 25.4086C111.274 23.5864 114.084 21.108 114.828 18.9979C117.102 12.5512 121.622 16.2273 123.458 18.1048C124.042 18.7016 124.953 18.8206 125.66 18.3817C126.613 17.7891 127.938 16.6454 129.247 14.4619C130.223 12.8336 132.251 12.1898 133.945 13.0164C136.684 14.3539 141.301 17.7766 148.878 26.0593C149.228 26.4429 149.552 26.8195 149.848 27.1906C149.932 27.5187 150.015 27.8482 150.095 28.1778C150.098 28.1847 150.099 28.1916 150.101 28.1985C150.147 28.3896 150.194 28.5807 150.239 28.7718C150.259 28.859 150.281 28.9448 150.3 29.0321C150.329 29.1484 150.355 29.2661 150.382 29.3824C153.552 43.1079 129.805 43.2284 129.068 43.2284Z" fill="#8589EB"/>
<path opacity="0.15" d="M129.068 43.2286C129.068 43.2286 129.062 43.2286 129.05 43.2286C128.328 43.2286 105.491 43.1123 107.58 30.1774C107.594 30.0874 107.609 29.9974 107.625 29.906C107.657 29.7343 107.694 29.5598 107.735 29.3826C107.813 29.0475 107.892 28.7138 107.973 28.3788C108.025 28.1655 108.077 27.9523 108.13 27.7405C109.228 27.512 110.43 27.6643 111.337 28.8454C111.427 28.9617 111.517 29.0766 111.61 29.1888C112.088 29.7648 112.61 30.2757 113.192 30.6689C113.608 30.95 114.054 31.1715 114.537 31.3141C115.398 31.5703 116.377 31.5758 117.504 31.2269C118.914 30.7921 120.556 29.8021 122.495 28.0506C128.31 22.7988 136.482 26.6176 139.153 30.1192C140.826 32.3124 144.319 31.8417 146.607 31.1729C147.016 31.0538 147.419 30.9195 147.812 30.7631C148.186 30.6135 148.553 30.446 148.906 30.2521C148.982 30.2106 149.059 30.1677 149.134 30.1234C149.342 30.0015 149.544 29.8714 149.742 29.7301C149.924 29.6 150.108 29.456 150.211 29.2566C150.25 29.186 150.276 29.1098 150.3 29.0323C150.329 29.1486 150.355 29.2663 150.382 29.3826C153.552 43.1082 129.805 43.2286 129.068 43.2286Z" fill="white"/>
<path opacity="0.15" d="M129.068 43.2291C129.068 43.2291 129.062 43.2291 129.05 43.2291C128.328 43.2291 105.491 43.1127 107.58 30.1778C107.594 30.0878 107.609 29.9978 107.625 29.9064C107.657 29.7347 107.694 29.5602 107.735 29.383C107.813 29.0479 107.892 28.7143 107.973 28.3792C108.025 28.1659 108.077 27.9527 108.13 27.7409C108.179 27.5443 108.229 27.3476 108.279 27.1496C108.327 26.9627 108.375 26.7758 108.424 26.5903C108.425 26.5833 108.428 26.5778 108.43 26.5709C108.521 26.222 108.616 25.873 108.714 25.5255C108.726 25.4784 108.739 25.4314 108.752 25.3843C108.791 25.3926 108.829 25.4009 108.867 25.4092C109.417 25.538 109.964 25.7886 110.492 26.2026C111.337 26.8658 112.133 27.9472 112.805 29.6129C112.919 29.8925 113.03 30.1902 113.135 30.5045C113.154 30.5599 113.172 30.6139 113.192 30.6693C113.793 32.3848 114.792 34.1834 116.491 34.9242C116.658 34.9976 116.833 35.0599 117.013 35.1111C119.219 35.7356 121.726 34.5171 123.438 33.1782C123.989 32.7476 124.499 32.2616 125.077 31.8711C128.94 29.2612 133.727 33.2017 136.049 36.0803C136.157 36.2146 136.263 36.3503 136.368 36.486C136.765 36.9997 137.173 37.4054 137.588 37.7114C141.249 40.4238 145.491 35.5445 148.281 31.2439C148.499 30.9088 148.707 30.5765 148.906 30.2525C149.213 29.7527 149.496 29.2709 149.753 28.8195C149.863 28.627 149.967 28.4401 150.067 28.2615C150.077 28.2407 150.09 28.2199 150.101 28.1992C150.147 28.3903 150.194 28.5813 150.239 28.7724C150.259 28.8596 150.281 28.9455 150.3 29.0327C150.329 29.149 150.355 29.2667 150.382 29.383C153.552 43.1086 129.805 43.2291 129.068 43.2291Z" fill="white"/>
<path opacity="0.15" d="M129.068 43.2285C129.068 43.2285 129.062 43.2285 129.05 43.2285C128.328 43.2285 105.491 43.1122 107.58 30.1773C108.594 29.5763 110.103 28.927 111.61 29.1887C112.012 29.2593 112.414 29.3936 112.805 29.6123C113.418 29.953 114.008 30.4971 114.537 31.314C114.838 31.7779 115.119 32.3303 115.375 32.9825C115.651 33.6914 116.022 34.3615 116.491 34.9237C117.236 35.8181 118.23 36.4384 119.492 36.509C121.504 36.6212 123.341 35.5509 124.936 34.4501C128.566 31.9482 131.658 36.4813 135.34 37.4132C136.122 37.6112 136.872 37.7039 137.588 37.7109C141.693 37.7538 144.707 34.9624 146.451 32.7429C147.064 31.9634 147.52 31.2545 147.812 30.7629C148.065 30.3365 148.194 30.0748 148.194 30.0748C148.194 30.0748 148.795 29.0543 149.753 28.819C149.785 28.8093 149.818 28.8024 149.85 28.7968C149.975 28.7733 150.105 28.765 150.239 28.7719C150.259 28.8591 150.281 28.945 150.3 29.0322C150.329 29.1485 150.355 29.2662 150.382 29.3825C153.552 43.108 129.805 43.2285 129.068 43.2285Z" fill="white"/>
<path opacity="0.15" d="M129.068 43.2287C129.068 43.2287 129.062 43.2287 129.05 43.2287C128.328 43.2287 105.491 43.1124 107.58 30.1775C107.594 30.0875 107.609 29.9975 107.625 29.9061C107.657 29.7344 107.694 29.56 107.735 29.3827C107.813 29.0477 107.892 28.714 107.973 28.3789C108.025 28.1657 108.077 27.9524 108.13 27.7406C108.179 27.544 108.229 27.3474 108.279 27.1494C108.327 26.9625 108.375 26.7755 108.424 26.59C108.425 26.5831 108.428 26.5775 108.43 26.5706C109.102 26.3781 109.803 26.2397 110.492 26.2023C112.379 26.0985 114.18 26.7506 115.101 29.1058C115.566 30.2952 116.409 30.9099 117.504 31.227C118.099 31.4001 118.768 31.4846 119.492 31.5247C121.504 31.6369 123.135 30.1706 124.936 29.4658C133.289 26.1981 135.485 31.4763 139.032 32.8442C142.346 34.1222 144.748 33.7207 146.451 32.7432C147.187 32.3209 147.791 31.7919 148.281 31.2436C148.617 30.8698 148.899 30.4863 149.134 30.1235C149.459 29.6181 149.695 29.1515 149.85 28.797C149.956 28.5603 150.027 28.3747 150.067 28.2612C150.079 28.2266 150.088 28.1989 150.095 28.1781C150.098 28.1851 150.099 28.192 150.101 28.1989C150.147 28.39 150.194 28.581 150.239 28.7721C150.259 28.8594 150.281 28.9452 150.3 29.0324C150.329 29.1487 150.355 29.2664 150.382 29.3827C153.552 43.1083 129.805 43.2287 129.068 43.2287Z" fill="white"/>
</g>
<path d="M166.835 30.3535V13.7363H170.109L175.348 23.3322L180.61 13.7363H183.767V30.3535H180.4V19.8449L176.541 26.8897H174.062L170.203 19.8449V30.3535H166.835Z" fill="#03174C"/>
<path d="M198.139 30.7046C197.219 30.7046 196.37 30.5408 195.59 30.2131C194.81 29.8854 194.132 29.433 193.555 28.8556C192.978 28.2627 192.526 27.5684 192.199 26.7726C191.887 25.9769 191.731 25.1109 191.731 24.1747C191.731 23.2386 191.895 22.3804 192.222 21.6002C192.55 20.8045 193.002 20.1102 193.579 19.5172C194.171 18.9243 194.857 18.464 195.637 18.1364C196.432 17.8087 197.297 17.6449 198.233 17.6449C199.153 17.6449 200.002 17.8087 200.782 18.1364C201.562 18.464 202.24 18.9243 202.817 19.5172C203.394 20.0946 203.838 20.7811 204.15 21.5768C204.477 22.357 204.641 23.2152 204.641 24.1513C204.641 25.0875 204.477 25.9535 204.15 26.7492C203.822 27.545 203.362 28.2393 202.77 28.8322C202.193 29.4251 201.507 29.8854 200.712 30.2131C199.932 30.5408 199.075 30.7046 198.139 30.7046ZM198.186 27.7556C198.779 27.7556 199.309 27.5996 199.776 27.2875C200.244 26.9755 200.611 26.5542 200.876 26.0237C201.156 25.4776 201.297 24.8613 201.297 24.1747C201.297 23.4882 201.156 22.8797 200.876 22.3492C200.611 21.8031 200.244 21.374 199.776 21.0619C199.309 20.7499 198.779 20.5938 198.186 20.5938C197.594 20.5938 197.063 20.7499 196.596 21.0619C196.128 21.374 195.754 21.8031 195.473 22.3492C195.208 22.8797 195.076 23.4882 195.076 24.1747C195.076 24.8613 195.208 25.4776 195.473 26.0237C195.754 26.5542 196.128 26.9755 196.596 27.2875C197.063 27.5996 197.594 27.7556 198.186 27.7556Z" fill="#03174C"/>
<path d="M218.461 30.7046C217.541 30.7046 216.691 30.5408 215.911 30.2131C215.132 29.8854 214.454 29.433 213.877 28.8556C213.3 28.2627 212.848 27.5684 212.52 26.7726C212.208 25.9769 212.053 25.1109 212.053 24.1747C212.053 23.2386 212.216 22.3804 212.544 21.6002C212.871 20.8045 213.323 20.1102 213.9 19.5172C214.493 18.9243 215.179 18.464 215.958 18.1364C216.753 17.8087 217.619 17.6449 218.554 17.6449C219.474 17.6449 220.324 17.8087 221.103 18.1364C221.883 18.464 222.561 18.9243 223.138 19.5172C223.715 20.0946 224.159 20.7811 224.471 21.5768C224.799 22.357 224.962 23.2152 224.962 24.1513C224.962 25.0875 224.799 25.9535 224.471 26.7492C224.144 27.545 223.684 28.2393 223.091 28.8322C222.514 29.4251 221.828 29.8854 221.033 30.2131C220.254 30.5408 219.396 30.7046 218.461 30.7046ZM218.507 27.7556C219.1 27.7556 219.63 27.5996 220.098 27.2875C220.566 26.9755 220.932 26.5542 221.197 26.0237C221.478 25.4776 221.618 24.8613 221.618 24.1747C221.618 23.4882 221.478 22.8797 221.197 22.3492C220.932 21.8031 220.566 21.374 220.098 21.0619C219.63 20.7499 219.1 20.5938 218.507 20.5938C217.915 20.5938 217.385 20.7499 216.917 21.0619C216.449 21.374 216.075 21.8031 215.795 22.3492C215.529 22.8797 215.397 23.4882 215.397 24.1747C215.397 24.8613 215.529 25.4776 215.795 26.0237C216.075 26.5542 216.449 26.9755 216.917 27.2875C217.385 27.5996 217.915 27.7556 218.507 27.7556Z" fill="#03174C"/>
<path d="M232.727 30.3535V17.9959H235.744L235.838 19.5875C236.197 18.9945 236.688 18.5265 237.311 18.1832C237.951 17.8243 238.676 17.6449 239.486 17.6449C240.391 17.6449 241.178 17.8633 241.849 18.3002C242.535 18.7215 243.065 19.33 243.439 20.1258C243.813 20.9215 244 21.8577 244 22.9343V30.3535H240.726V23.3556C240.726 22.4974 240.531 21.8265 240.141 21.3428C239.751 20.8435 239.214 20.5938 238.528 20.5938C238.029 20.5938 237.592 20.7109 237.218 20.9449C236.844 21.1634 236.547 21.4754 236.329 21.8811C236.111 22.2868 236.002 22.7471 236.002 23.262V30.3535H232.727Z" fill="#03174C"/>
<path d="M8.05777 30.7048C7.06367 30.7048 6.14724 30.5385 5.30847 30.2059C4.48524 29.8581 3.7785 29.3743 3.18825 28.7544C2.61354 28.1194 2.21746 27.3634 2 26.4865L5.23857 25.8061C5.4405 26.426 5.78999 26.9098 6.28703 27.2576C6.79961 27.6053 7.40539 27.7792 8.10436 27.7792C8.60141 27.7792 9.03633 27.696 9.40911 27.5297C9.79743 27.3483 10.0926 27.1064 10.2945 26.804C10.5119 26.5016 10.6207 26.1538 10.6207 25.7607C10.6207 25.2618 10.4265 24.8611 10.0382 24.5587C9.64987 24.2412 9.02079 23.9842 8.15096 23.7876L7.40539 23.6289C5.69679 23.266 4.43864 22.6839 3.63094 21.8826C2.82323 21.0661 2.41938 20.0758 2.41938 18.9116C2.41938 18.1859 2.56694 17.5206 2.86207 16.9158C3.15719 16.3111 3.56104 15.7894 4.07362 15.351C4.60173 14.8974 5.21528 14.5496 5.91425 14.3077C6.61322 14.0507 7.36656 13.9222 8.17426 13.9222C9.09069 13.9222 9.94499 14.0885 10.7372 14.4211C11.5293 14.7538 12.1972 15.23 12.7409 15.8499C13.2845 16.4698 13.6495 17.2031 13.8359 18.0498L10.644 18.7302C10.4576 18.1254 10.1314 17.6642 9.6654 17.3467C9.21495 17.0141 8.68684 16.8478 8.08106 16.8478C7.66168 16.8478 7.28113 16.931 6.93941 17.0973C6.61322 17.2485 6.34916 17.4677 6.14724 17.755C5.96085 18.0271 5.86765 18.3371 5.86765 18.6848C5.86765 19.214 6.07734 19.6222 6.49673 19.9095C6.91611 20.1816 7.53742 20.4084 8.36065 20.5899L9.10623 20.7486C10.7993 21.1115 12.0497 21.686 12.8574 22.4722C13.6806 23.2585 14.0922 24.2639 14.0922 25.4886C14.0922 26.2597 13.9369 26.9627 13.6262 27.5977C13.3311 28.2328 12.9117 28.7846 12.3681 29.2533C11.8245 29.722 11.1876 30.0849 10.4576 30.3419C9.72753 30.5838 8.9276 30.7048 8.05777 30.7048Z" fill="#03174C"/>
<path d="M25.1882 15.1469C25.1882 15.4946 25.1028 15.8046 24.932 16.0767C24.7766 16.3489 24.5514 16.5681 24.2563 16.7344C23.9767 16.8856 23.666 16.9612 23.3243 16.9612C22.9826 16.9612 22.6642 16.8856 22.3691 16.7344C22.0895 16.5681 21.8642 16.3489 21.6934 16.0767C21.5381 15.8046 21.4604 15.4946 21.4604 15.1469C21.4604 14.7991 21.5381 14.4892 21.6934 14.217C21.8642 13.9449 22.0895 13.7332 22.3691 13.582C22.6642 13.4157 22.9826 13.3325 23.3243 13.3325C23.666 13.3325 23.9767 13.4157 24.2563 13.582C24.5514 13.7332 24.7766 13.9449 24.932 14.217C25.1028 14.4892 25.1882 14.7991 25.1882 15.1469ZM21.6934 30.3646V18.39H24.9553V30.3646H21.6934Z" fill="#03174C"/>
<path d="M33.1554 30.3646V13.4459H36.4173V30.3646H33.1554Z" fill="#03174C"/>
<path d="M50.4423 30.7048C49.5258 30.7048 48.6793 30.5536 47.9027 30.2512C47.1416 29.9337 46.4814 29.4952 45.9223 28.9358C45.3631 28.3613 44.9282 27.6885 44.6175 26.9174C44.3068 26.1312 44.1515 25.2769 44.1515 24.3546C44.1515 23.4626 44.3068 22.631 44.6175 21.8599C44.9282 21.0888 45.3553 20.4236 45.899 19.8641C46.4581 19.2896 47.1105 18.8436 47.8561 18.5261C48.6017 18.2085 49.4094 18.0498 50.2792 18.0498C51.1801 18.0498 51.9956 18.201 52.7256 18.5034C53.4712 18.8058 54.108 19.2367 54.6361 19.7961C55.1642 20.3555 55.5681 21.0208 55.8477 21.7919C56.1428 22.563 56.2904 23.4248 56.2904 24.3773V25.1711H47.46C47.5998 26.0631 47.9337 26.7662 48.4619 27.2802C48.99 27.7792 49.6579 28.0286 50.4656 28.0286C51.0248 28.0286 51.5296 27.9001 51.98 27.6431C52.446 27.3861 52.8266 27.0156 53.1217 26.5318L56.0341 27.439C55.7545 28.1194 55.3351 28.7015 54.7759 29.1853C54.2167 29.6691 53.5644 30.0471 52.8188 30.3193C52.0732 30.5763 51.281 30.7048 50.4423 30.7048ZM50.2792 20.4991C49.5647 20.4991 48.9589 20.7259 48.4619 21.1795C47.9803 21.6331 47.6619 22.253 47.5066 23.0392H52.9353C52.811 22.253 52.5081 21.6331 52.0266 21.1795C51.5606 20.7259 50.9782 20.4991 50.2792 20.4991Z" fill="#03174C"/>
<path d="M63.9066 30.3646V18.39H66.9122L67.0054 19.9322C67.3626 19.3576 67.8519 18.904 68.4732 18.5714C69.1101 18.2237 69.8323 18.0498 70.64 18.0498C71.5409 18.0498 72.3253 18.2615 72.9933 18.6848C73.6767 19.093 74.2048 19.6827 74.5776 20.4538C74.9504 21.2249 75.1368 22.1321 75.1368 23.1753V30.3646H71.8749V23.5835C71.8749 22.752 71.6807 22.1018 71.2924 21.6331C70.9041 21.1493 70.3682 20.9074 69.6848 20.9074C69.1877 20.9074 68.7528 21.0208 68.38 21.2476C68.0072 21.4592 67.7121 21.7616 67.4947 22.1547C67.2772 22.5478 67.1685 22.9939 67.1685 23.4928V30.3646H63.9066Z" fill="#03174C"/>
<path d="M88.3264 30.7048C87.4721 30.7048 86.7343 30.546 86.113 30.2285C85.5072 29.8959 85.0335 29.4196 84.6918 28.7997C84.3656 28.1798 84.2025 27.4239 84.2025 26.5318V20.9527H82.1056V18.39H84.2025V14.3077H87.4644V18.39H90.8194V20.9527H87.4644V26.1463C87.4644 26.7208 87.5886 27.1668 87.8371 27.4843C88.0857 27.7867 88.4662 27.9379 88.9788 27.9379C89.2429 27.9379 89.5224 27.9001 89.8176 27.8245C90.1282 27.7489 90.4233 27.6507 90.7029 27.5297L91.2854 29.911C90.8816 30.1529 90.4311 30.3419 89.9341 30.478C89.437 30.6292 88.9011 30.7048 88.3264 30.7048Z" fill="#03174C"/>
<path d="M74.1442 101.832V108.744C74.1442 109.501 74.3415 110.083 74.7362 110.488C75.1309 110.883 75.6855 111.08 76.4002 111.08C77.1255 111.08 77.6855 110.883 78.0802 110.488C78.4749 110.083 78.6722 109.501 78.6722 108.744V101.832H80.9282V108.728C80.9282 109.677 80.7202 110.483 80.3042 111.144C79.8989 111.795 79.3495 112.285 78.6562 112.616C77.9735 112.947 77.2109 113.112 76.3682 113.112C75.5362 113.112 74.7789 112.947 74.0962 112.616C73.4242 112.285 72.8909 111.795 72.4962 111.144C72.1015 110.483 71.9042 109.677 71.9042 108.728V101.832H74.1442ZM84.6924 101.832V113H82.4524V101.832H84.6924ZM88.8941 107.4C88.8941 106.301 89.1394 105.32 89.6301 104.456C90.1314 103.581 90.8087 102.904 91.6621 102.424C92.5261 101.933 93.4914 101.688 94.5581 101.688C95.8061 101.688 96.8994 102.008 97.8381 102.648C98.7767 103.288 99.4327 104.173 99.8061 105.304H97.2301C96.9741 104.771 96.6114 104.371 96.1421 104.104C95.6834 103.837 95.1501 103.704 94.5421 103.704C93.8914 103.704 93.3101 103.859 92.7981 104.168C92.2967 104.467 91.9021 104.893 91.6141 105.448C91.3367 106.003 91.1981 106.653 91.1981 107.4C91.1981 108.136 91.3367 108.787 91.6141 109.352C91.9021 109.907 92.2967 110.339 92.7981 110.648C93.3101 110.947 93.8914 111.096 94.5421 111.096C95.1501 111.096 95.6834 110.963 96.1421 110.696C96.6114 110.419 96.9741 110.013 97.2301 109.48H99.8061C99.4327 110.621 98.7767 111.512 97.8381 112.152C96.9101 112.781 95.8167 113.096 94.5581 113.096C93.4914 113.096 92.5261 112.856 91.6621 112.376C90.8087 111.885 90.1314 111.208 89.6301 110.344C89.1394 109.48 88.8941 108.499 88.8941 107.4ZM100.503 108.536C100.503 107.64 100.679 106.845 101.031 106.152C101.394 105.459 101.879 104.925 102.487 104.552C103.106 104.179 103.794 103.992 104.551 103.992C105.213 103.992 105.789 104.125 106.279 104.392C106.781 104.659 107.181 104.995 107.479 105.4V104.136H109.735V113H107.479V111.704C107.191 112.12 106.791 112.467 106.279 112.744C105.778 113.011 105.197 113.144 104.535 113.144C103.789 113.144 103.106 112.952 102.487 112.568C101.879 112.184 101.394 111.645 101.031 110.952C100.679 110.248 100.503 109.443 100.503 108.536ZM107.479 108.568C107.479 108.024 107.373 107.56 107.159 107.176C106.946 106.781 106.658 106.483 106.295 106.28C105.933 106.067 105.543 105.96 105.127 105.96C104.711 105.96 104.327 106.061 103.975 106.264C103.623 106.467 103.335 106.765 103.111 107.16C102.898 107.544 102.791 108.003 102.791 108.536C102.791 109.069 102.898 109.539 103.111 109.944C103.335 110.339 103.623 110.643 103.975 110.856C104.338 111.069 104.722 111.176 105.127 111.176C105.543 111.176 105.933 111.075 106.295 110.872C106.658 110.659 106.946 110.36 107.159 109.976C107.373 109.581 107.479 109.112 107.479 108.568ZM114.675 113.144C113.95 113.144 113.299 113.016 112.723 112.76C112.147 112.493 111.688 112.136 111.347 111.688C111.016 111.24 110.835 110.744 110.803 110.2H113.059C113.102 110.541 113.267 110.824 113.555 111.048C113.854 111.272 114.222 111.384 114.659 111.384C115.086 111.384 115.416 111.299 115.651 111.128C115.896 110.957 116.019 110.739 116.019 110.472C116.019 110.184 115.87 109.971 115.571 109.832C115.283 109.683 114.819 109.523 114.179 109.352C113.518 109.192 112.974 109.027 112.547 108.856C112.131 108.685 111.768 108.424 111.459 108.072C111.16 107.72 111.011 107.245 111.011 106.648C111.011 106.157 111.15 105.709 111.427 105.304C111.715 104.899 112.12 104.579 112.643 104.344C113.176 104.109 113.8 103.992 114.515 103.992C115.571 103.992 116.414 104.259 117.043 104.792C117.672 105.315 118.019 106.024 118.083 106.92H115.939C115.907 106.568 115.758 106.291 115.491 106.088C115.235 105.875 114.888 105.768 114.451 105.768C114.046 105.768 113.731 105.843 113.507 105.992C113.294 106.141 113.187 106.349 113.187 106.616C113.187 106.915 113.336 107.144 113.635 107.304C113.934 107.453 114.398 107.608 115.027 107.768C115.667 107.928 116.195 108.093 116.611 108.264C117.027 108.435 117.384 108.701 117.683 109.064C117.992 109.416 118.152 109.885 118.163 110.472C118.163 110.984 118.019 111.443 117.731 111.848C117.454 112.253 117.048 112.573 116.515 112.808C115.992 113.032 115.379 113.144 114.675 113.144ZM127.602 108.376C127.602 108.696 127.58 108.984 127.538 109.24H121.058C121.111 109.88 121.335 110.381 121.73 110.744C122.124 111.107 122.61 111.288 123.186 111.288C124.018 111.288 124.61 110.931 124.962 110.216H127.378C127.122 111.069 126.631 111.773 125.906 112.328C125.18 112.872 124.29 113.144 123.234 113.144C122.38 113.144 121.612 112.957 120.93 112.584C120.258 112.2 119.73 111.661 119.346 110.968C118.972 110.275 118.786 109.475 118.786 108.568C118.786 107.651 118.972 106.845 119.346 106.152C119.719 105.459 120.242 104.925 120.914 104.552C121.586 104.179 122.359 103.992 123.234 103.992C124.076 103.992 124.828 104.173 125.49 104.536C126.162 104.899 126.679 105.416 127.042 106.088C127.415 106.749 127.602 107.512 127.602 108.376ZM125.282 107.736C125.271 107.16 125.063 106.701 124.658 106.36C124.252 106.008 123.756 105.832 123.17 105.832C122.615 105.832 122.146 106.003 121.762 106.344C121.388 106.675 121.159 107.139 121.074 107.736H125.282ZM135.625 113.112C134.847 113.112 134.143 112.979 133.513 112.712C132.895 112.445 132.404 112.061 132.041 111.56C131.679 111.059 131.492 110.467 131.481 109.784H133.881C133.913 110.243 134.073 110.605 134.361 110.872C134.66 111.139 135.065 111.272 135.577 111.272C136.1 111.272 136.511 111.149 136.809 110.904C137.108 110.648 137.257 110.317 137.257 109.912C137.257 109.581 137.156 109.309 136.953 109.096C136.751 108.883 136.495 108.717 136.185 108.6C135.887 108.472 135.471 108.333 134.937 108.184C134.212 107.971 133.62 107.763 133.161 107.56C132.713 107.347 132.324 107.032 131.993 106.616C131.673 106.189 131.513 105.624 131.513 104.92C131.513 104.259 131.679 103.683 132.009 103.192C132.34 102.701 132.804 102.328 133.401 102.072C133.999 101.805 134.681 101.672 135.449 101.672C136.601 101.672 137.535 101.955 138.249 102.52C138.975 103.075 139.375 103.853 139.449 104.856H136.985C136.964 104.472 136.799 104.157 136.489 103.912C136.191 103.656 135.791 103.528 135.289 103.528C134.852 103.528 134.5 103.64 134.233 103.864C133.977 104.088 133.849 104.413 133.849 104.84C133.849 105.139 133.945 105.389 134.137 105.592C134.34 105.784 134.585 105.944 134.873 106.072C135.172 106.189 135.588 106.328 136.121 106.488C136.847 106.701 137.439 106.915 137.897 107.128C138.356 107.341 138.751 107.661 139.081 108.088C139.412 108.515 139.577 109.075 139.577 109.768C139.577 110.365 139.423 110.92 139.113 111.432C138.804 111.944 138.351 112.355 137.753 112.664C137.156 112.963 136.447 113.112 135.625 113.112ZM143.487 105.976V110.264C143.487 110.563 143.557 110.781 143.695 110.92C143.845 111.048 144.09 111.112 144.431 111.112H145.471V113H144.063C142.175 113 141.231 112.083 141.231 110.248V105.976H140.175V104.136H141.231V101.944H143.487V104.136H145.471V105.976H143.487ZM154.81 104.136V113H152.554V111.88C152.266 112.264 151.888 112.568 151.418 112.792C150.96 113.005 150.458 113.112 149.914 113.112C149.221 113.112 148.608 112.968 148.074 112.68C147.541 112.381 147.12 111.949 146.81 111.384C146.512 110.808 146.362 110.125 146.362 109.336V104.136H148.602V109.016C148.602 109.72 148.778 110.264 149.13 110.648C149.482 111.021 149.962 111.208 150.57 111.208C151.189 111.208 151.674 111.021 152.026 110.648C152.378 110.264 152.554 109.72 152.554 109.016V104.136H154.81ZM155.805 108.536C155.805 107.64 155.981 106.845 156.333 106.152C156.695 105.459 157.186 104.925 157.805 104.552C158.423 104.179 159.111 103.992 159.869 103.992C160.445 103.992 160.994 104.12 161.517 104.376C162.039 104.621 162.455 104.952 162.765 105.368V101.16H165.037V113H162.765V111.688C162.487 112.125 162.098 112.477 161.597 112.744C161.095 113.011 160.514 113.144 159.853 113.144C159.106 113.144 158.423 112.952 157.805 112.568C157.186 112.184 156.695 111.645 156.333 110.952C155.981 110.248 155.805 109.443 155.805 108.536ZM162.781 108.568C162.781 108.024 162.674 107.56 162.461 107.176C162.247 106.781 161.959 106.483 161.597 106.28C161.234 106.067 160.845 105.96 160.429 105.96C160.013 105.96 159.629 106.061 159.277 106.264C158.925 106.467 158.637 106.765 158.413 107.16C158.199 107.544 158.093 108.003 158.093 108.536C158.093 109.069 158.199 109.539 158.413 109.944C158.637 110.339 158.925 110.643 159.277 110.856C159.639 111.069 160.023 111.176 160.429 111.176C160.845 111.176 161.234 111.075 161.597 110.872C161.959 110.659 162.247 110.36 162.461 109.976C162.674 109.581 162.781 109.112 162.781 108.568ZM175.064 104.136L169.576 117.192H167.192L169.112 112.776L165.56 104.136H168.072L170.36 110.328L172.68 104.136H175.064Z" fill="black"/>
<path d="M10.1791 61L7.61913 56.552H6.22713V61H4.40313V49.88H8.24313C9.09646 49.88 9.81646 50.0293 10.4031 50.328C11.0005 50.6267 11.4431 51.0267 11.7311 51.528C12.0298 52.0293 12.1791 52.5893 12.1791 53.208C12.1791 53.9333 11.9658 54.5947 11.5391 55.192C11.1231 55.7787 10.4778 56.1787 9.60313 56.392L12.3551 61H10.1791ZM6.22713 55.096H8.24313C8.92579 55.096 9.43779 54.9253 9.77913 54.584C10.1311 54.2427 10.3071 53.784 10.3071 53.208C10.3071 52.632 10.1365 52.184 9.79513 51.864C9.45379 51.5333 8.93646 51.368 8.24313 51.368H6.22713V55.096ZM23.4725 56.376C23.4725 56.7067 23.4512 57.0053 23.4085 57.272H16.6725C16.7258 57.976 16.9872 58.5413 17.4565 58.968C17.9258 59.3947 18.5018 59.608 19.1845 59.608C20.1658 59.608 20.8592 59.1973 21.2645 58.376H23.2325C22.9658 59.1867 22.4805 59.8533 21.7765 60.376C21.0832 60.888 20.2192 61.144 19.1845 61.144C18.3418 61.144 17.5845 60.9573 16.9125 60.584C16.2512 60.2 15.7285 59.6667 15.3445 58.984C14.9712 58.2907 14.7845 57.4907 14.7845 56.584C14.7845 55.6773 14.9658 54.8827 15.3285 54.2C15.7018 53.5067 16.2192 52.9733 16.8805 52.6C17.5525 52.2267 18.3205 52.04 19.1845 52.04C20.0165 52.04 20.7578 52.2213 21.4085 52.584C22.0592 52.9467 22.5658 53.4587 22.9285 54.12C23.2912 54.7707 23.4725 55.5227 23.4725 56.376ZM21.5685 55.8C21.5578 55.128 21.3178 54.5893 20.8485 54.184C20.3792 53.7787 19.7978 53.576 19.1045 53.576C18.4752 53.576 17.9365 53.7787 17.4885 54.184C17.0405 54.5787 16.7738 55.1173 16.6885 55.8H21.5685ZM25.5395 56.552C25.5395 55.6667 25.7208 54.8827 26.0835 54.2C26.4568 53.5173 26.9582 52.9893 27.5875 52.616C28.2275 52.232 28.9368 52.04 29.7155 52.04C30.2915 52.04 30.8568 52.168 31.4115 52.424C31.9768 52.6693 32.4248 53 32.7555 53.416V49.16H34.5955V61H32.7555V59.672C32.4568 60.0987 32.0408 60.4507 31.5075 60.728C30.9848 61.0053 30.3822 61.144 29.6995 61.144C28.9315 61.144 28.2275 60.952 27.5875 60.568C26.9582 60.1733 26.4568 59.6293 26.0835 58.936C25.7208 58.232 25.5395 57.4373 25.5395 56.552ZM32.7555 56.584C32.7555 55.976 32.6275 55.448 32.3715 55C32.1262 54.552 31.8008 54.2107 31.3955 53.976C30.9902 53.7413 30.5528 53.624 30.0835 53.624C29.6142 53.624 29.1768 53.7413 28.7715 53.976C28.3662 54.2 28.0355 54.536 27.7795 54.984C27.5342 55.4213 27.4115 55.944 27.4115 56.552C27.4115 57.16 27.5342 57.6933 27.7795 58.152C28.0355 58.6107 28.3662 58.9627 28.7715 59.208C29.1875 59.4427 29.6248 59.56 30.0835 59.56C30.5528 59.56 30.9902 59.4427 31.3955 59.208C31.8008 58.9733 32.1262 58.632 32.3715 58.184C32.6275 57.7253 32.7555 57.192 32.7555 56.584ZM45.9513 56.376C45.9513 56.7067 45.9299 57.0053 45.8872 57.272H39.1512C39.2046 57.976 39.4659 58.5413 39.9352 58.968C40.4046 59.3947 40.9806 59.608 41.6632 59.608C42.6446 59.608 43.3379 59.1973 43.7432 58.376H45.7112C45.4446 59.1867 44.9592 59.8533 44.2552 60.376C43.5619 60.888 42.6979 61.144 41.6632 61.144C40.8206 61.144 40.0632 60.9573 39.3912 60.584C38.7299 60.2 38.2072 59.6667 37.8232 58.984C37.4499 58.2907 37.2632 57.4907 37.2632 56.584C37.2632 55.6773 37.4446 54.8827 37.8072 54.2C38.1806 53.5067 38.6979 52.9733 39.3592 52.6C40.0312 52.2267 40.7992 52.04 41.6632 52.04C42.4952 52.04 43.2366 52.2213 43.8872 52.584C44.5379 52.9467 45.0446 53.4587 45.4072 54.12C45.7699 54.7707 45.9513 55.5227 45.9513 56.376ZM44.0472 55.8C44.0366 55.128 43.7966 54.5893 43.3272 54.184C42.8579 53.7787 42.2766 53.576 41.5832 53.576C40.9539 53.576 40.4152 53.7787 39.9672 54.184C39.5192 54.5787 39.2526 55.1173 39.1672 55.8H44.0472ZM51.8263 61.144C51.1329 61.144 50.5089 61.0213 49.9543 60.776C49.4103 60.52 48.9783 60.1787 48.6583 59.752C48.3383 59.3147 48.1676 58.8293 48.1463 58.296H50.0343C50.0663 58.6693 50.2423 58.984 50.5623 59.24C50.8929 59.4853 51.3036 59.608 51.7943 59.608C52.3063 59.608 52.7009 59.512 52.9783 59.32C53.2663 59.1173 53.4103 58.8613 53.4103 58.552C53.4103 58.2213 53.2503 57.976 52.9303 57.816C52.6209 57.656 52.1249 57.48 51.4423 57.288C50.7809 57.1067 50.2423 56.9307 49.8263 56.76C49.4103 56.5893 49.0476 56.328 48.7383 55.976C48.4396 55.624 48.2903 55.16 48.2903 54.584C48.2903 54.1147 48.4289 53.688 48.7063 53.304C48.9836 52.9093 49.3783 52.6 49.8903 52.376C50.4129 52.152 51.0103 52.04 51.6823 52.04C52.6849 52.04 53.4903 52.296 54.0983 52.808C54.7169 53.3093 55.0476 53.9973 55.0903 54.872H53.2663C53.2343 54.4773 53.0743 54.1627 52.7863 53.928C52.4983 53.6933 52.1089 53.576 51.6183 53.576C51.1383 53.576 50.7703 53.6667 50.5143 53.848C50.2583 54.0293 50.1303 54.2693 50.1303 54.568C50.1303 54.8027 50.2156 55 50.3863 55.16C50.5569 55.32 50.7649 55.448 51.0103 55.544C51.2556 55.6293 51.6183 55.7413 52.0983 55.88C52.7383 56.0507 53.2609 56.2267 53.6663 56.408C54.0823 56.5787 54.4396 56.8347 54.7383 57.176C55.0369 57.5173 55.1916 57.9707 55.2023 58.536C55.2023 59.0373 55.0636 59.4853 54.7863 59.88C54.5089 60.2747 54.1143 60.584 53.6023 60.808C53.1009 61.032 52.5089 61.144 51.8263 61.144ZM58.9811 51.016C58.6505 51.016 58.3731 50.904 58.1491 50.68C57.9251 50.456 57.8131 50.1787 57.8131 49.848C57.8131 49.5173 57.9251 49.24 58.1491 49.016C58.3731 48.792 58.6505 48.68 58.9811 48.68C59.3011 48.68 59.5731 48.792 59.7971 49.016C60.0211 49.24 60.1331 49.5173 60.1331 49.848C60.1331 50.1787 60.0211 50.456 59.7971 50.68C59.5731 50.904 59.3011 51.016 58.9811 51.016ZM59.8771 52.184V61H58.0531V52.184H59.8771ZM66.7039 52.04C67.3865 52.04 67.9892 52.1787 68.5119 52.456C69.0452 52.7227 69.4612 53.0587 69.7599 53.464V52.184H71.5999V61.144C71.5999 61.9547 71.4292 62.6747 71.0879 63.304C70.7465 63.944 70.2505 64.4453 69.5999 64.808C68.9599 65.1707 68.1919 65.352 67.2959 65.352C66.1012 65.352 65.1092 65.0693 64.3199 64.504C63.5305 63.9493 63.0825 63.192 62.9759 62.232H64.7839C64.9225 62.6907 65.2159 63.0587 65.6639 63.336C66.1225 63.624 66.6665 63.768 67.2959 63.768C68.0319 63.768 68.6239 63.544 69.0719 63.096C69.5305 62.648 69.7599 61.9973 69.7599 61.144V59.672C69.4505 60.088 69.0292 60.44 68.4959 60.728C67.9732 61.0053 67.3759 61.144 66.7039 61.144C65.9359 61.144 65.2319 60.952 64.5919 60.568C63.9625 60.1733 63.4612 59.6293 63.0879 58.936C62.7252 58.232 62.5439 57.4373 62.5439 56.552C62.5439 55.6667 62.7252 54.8827 63.0879 54.2C63.4612 53.5173 63.9625 52.9893 64.5919 52.616C65.2319 52.232 65.9359 52.04 66.7039 52.04ZM69.7599 56.584C69.7599 55.976 69.6319 55.448 69.3759 55C69.1305 54.552 68.8052 54.2107 68.3999 53.976C67.9945 53.7413 67.5572 53.624 67.0879 53.624C66.6185 53.624 66.1812 53.7413 65.7759 53.976C65.3705 54.2 65.0399 54.536 64.7839 54.984C64.5385 55.4213 64.4159 55.944 64.4159 56.552C64.4159 57.16 64.5385 57.6933 64.7839 58.152C65.0399 58.6107 65.3705 58.9627 65.7759 59.208C66.1919 59.4427 66.6292 59.56 67.0879 59.56C67.5572 59.56 67.9945 59.4427 68.3999 59.208C68.8052 58.9733 69.1305 58.632 69.3759 58.184C69.6319 57.7253 69.7599 57.192 69.7599 56.584ZM79.3236 52.04C80.017 52.04 80.6356 52.184 81.1796 52.472C81.7343 52.76 82.1663 53.1867 82.4756 53.752C82.785 54.3173 82.9396 55 82.9396 55.8V61H81.1316V56.072C81.1316 55.2827 80.9343 54.68 80.5396 54.264C80.145 53.8373 79.6063 53.624 78.9236 53.624C78.241 53.624 77.697 53.8373 77.2916 54.264C76.897 54.68 76.6996 55.2827 76.6996 56.072V61H74.8756V52.184H76.6996V53.192C76.9983 52.8293 77.377 52.5467 77.8356 52.344C78.305 52.1413 78.801 52.04 79.3236 52.04ZM87.0743 51.016C86.7436 51.016 86.4663 50.904 86.2423 50.68C86.0183 50.456 85.9063 50.1787 85.9063 49.848C85.9063 49.5173 86.0183 49.24 86.2423 49.016C86.4663 48.792 86.7436 48.68 87.0743 48.68C87.3943 48.68 87.6663 48.792 87.8903 49.016C88.1143 49.24 88.2263 49.5173 88.2263 49.848C88.2263 50.1787 88.1143 50.456 87.8903 50.68C87.6663 50.904 87.3943 51.016 87.0743 51.016ZM87.9703 52.184V61H86.1463V52.184H87.9703ZM95.693 52.04C96.3863 52.04 97.005 52.184 97.549 52.472C98.1037 52.76 98.5357 53.1867 98.845 53.752C99.1543 54.3173 99.309 55 99.309 55.8V61H97.501V56.072C97.501 55.2827 97.3037 54.68 96.909 54.264C96.5143 53.8373 95.9757 53.624 95.293 53.624C94.6103 53.624 94.0663 53.8373 93.661 54.264C93.2663 54.68 93.069 55.2827 93.069 56.072V61H91.245V52.184H93.069V53.192C93.3677 52.8293 93.7463 52.5467 94.205 52.344C94.6743 52.1413 95.1703 52.04 95.693 52.04ZM106.068 52.04C106.75 52.04 107.353 52.1787 107.876 52.456C108.409 52.7227 108.825 53.0587 109.124 53.464V52.184H110.964V61.144C110.964 61.9547 110.793 62.6747 110.452 63.304C110.11 63.944 109.614 64.4453 108.964 64.808C108.324 65.1707 107.556 65.352 106.66 65.352C105.465 65.352 104.473 65.0693 103.684 64.504C102.894 63.9493 102.446 63.192 102.34 62.232H104.148C104.286 62.6907 104.58 63.0587 105.028 63.336C105.486 63.624 106.03 63.768 106.66 63.768C107.396 63.768 107.988 63.544 108.436 63.096C108.894 62.648 109.124 61.9973 109.124 61.144V59.672C108.814 60.088 108.393 60.44 107.86 60.728C107.337 61.0053 106.74 61.144 106.068 61.144C105.3 61.144 104.596 60.952 103.956 60.568C103.326 60.1733 102.825 59.6293 102.452 58.936C102.089 58.232 101.908 57.4373 101.908 56.552C101.908 55.6667 102.089 54.8827 102.452 54.2C102.825 53.5173 103.326 52.9893 103.956 52.616C104.596 52.232 105.3 52.04 106.068 52.04ZM109.124 56.584C109.124 55.976 108.996 55.448 108.74 55C108.494 54.552 108.169 54.2107 107.764 53.976C107.358 53.7413 106.921 53.624 106.452 53.624C105.982 53.624 105.545 53.7413 105.14 53.976C104.734 54.2 104.404 54.536 104.148 54.984C103.902 55.4213 103.78 55.944 103.78 56.552C103.78 57.16 103.902 57.6933 104.148 58.152C104.404 58.6107 104.734 58.9627 105.14 59.208C105.556 59.4427 105.993 59.56 106.452 59.56C106.921 59.56 107.358 59.4427 107.764 59.208C108.169 58.9733 108.494 58.632 108.74 58.184C108.996 57.7253 109.124 57.192 109.124 56.584ZM123.836 52.04C124.508 52.04 125.105 52.184 125.628 52.472C126.161 52.76 126.577 53.1867 126.876 53.752C127.185 54.3173 127.34 55 127.34 55.8V61H125.532V56.072C125.532 55.2827 125.334 54.68 124.94 54.264C124.545 53.8373 124.006 53.624 123.324 53.624C122.641 53.624 122.097 53.8373 121.692 54.264C121.297 54.68 121.1 55.2827 121.1 56.072V61H119.276V49.16H121.1V53.208C121.409 52.8347 121.798 52.5467 122.268 52.344C122.748 52.1413 123.27 52.04 123.836 52.04ZM134.37 61.144C133.538 61.144 132.786 60.9573 132.114 60.584C131.442 60.2 130.914 59.6667 130.53 58.984C130.146 58.2907 129.954 57.4907 129.954 56.584C129.954 55.688 130.152 54.8933 130.546 54.2C130.941 53.5067 131.48 52.9733 132.162 52.6C132.845 52.2267 133.608 52.04 134.45 52.04C135.293 52.04 136.056 52.2267 136.738 52.6C137.421 52.9733 137.96 53.5067 138.354 54.2C138.749 54.8933 138.946 55.688 138.946 56.584C138.946 57.48 138.744 58.2747 138.338 58.968C137.933 59.6613 137.378 60.2 136.674 60.584C135.981 60.9573 135.213 61.144 134.37 61.144ZM134.37 59.56C134.84 59.56 135.277 59.448 135.682 59.224C136.098 59 136.434 58.664 136.69 58.216C136.946 57.768 137.074 57.224 137.074 56.584C137.074 55.944 136.952 55.4053 136.706 54.968C136.461 54.52 136.136 54.184 135.73 53.96C135.325 53.736 134.888 53.624 134.418 53.624C133.949 53.624 133.512 53.736 133.106 53.96C132.712 54.184 132.397 54.52 132.162 54.968C131.928 55.4053 131.81 55.944 131.81 56.584C131.81 57.5333 132.05 58.2693 132.53 58.792C133.021 59.304 133.634 59.56 134.37 59.56ZM153.469 52.184L150.733 61H148.813L147.037 54.488L145.261 61H143.341L140.589 52.184H142.445L144.285 59.272L146.157 52.184H148.061L149.853 59.24L151.677 52.184H153.469ZM168.733 52.184V61H166.909V59.96C166.621 60.3227 166.242 60.6107 165.773 60.824C165.314 61.0267 164.823 61.128 164.301 61.128C163.607 61.128 162.983 60.984 162.429 60.696C161.885 60.408 161.453 59.9813 161.133 59.416C160.823 58.8507 160.669 58.168 160.669 57.368V52.184H162.477V57.096C162.477 57.8853 162.674 58.4933 163.069 58.92C163.463 59.336 164.002 59.544 164.685 59.544C165.367 59.544 165.906 59.336 166.301 58.92C166.706 58.4933 166.909 57.8853 166.909 57.096V52.184H168.733ZM175.219 61.144C174.526 61.144 173.902 61.0213 173.347 60.776C172.803 60.52 172.371 60.1787 172.051 59.752C171.731 59.3147 171.561 58.8293 171.539 58.296H173.427C173.459 58.6693 173.635 58.984 173.955 59.24C174.286 59.4853 174.697 59.608 175.187 59.608C175.699 59.608 176.094 59.512 176.371 59.32C176.659 59.1173 176.803 58.8613 176.803 58.552C176.803 58.2213 176.643 57.976 176.323 57.816C176.014 57.656 175.518 57.48 174.835 57.288C174.174 57.1067 173.635 56.9307 173.219 56.76C172.803 56.5893 172.441 56.328 172.131 55.976C171.833 55.624 171.683 55.16 171.683 54.584C171.683 54.1147 171.822 53.688 172.099 53.304C172.377 52.9093 172.771 52.6 173.283 52.376C173.806 52.152 174.403 52.04 175.075 52.04C176.078 52.04 176.883 52.296 177.491 52.808C178.11 53.3093 178.441 53.9973 178.483 54.872H176.659C176.627 54.4773 176.467 54.1627 176.179 53.928C175.891 53.6933 175.502 53.576 175.011 53.576C174.531 53.576 174.163 53.6667 173.907 53.848C173.651 54.0293 173.523 54.2693 173.523 54.568C173.523 54.8027 173.609 55 173.779 55.16C173.95 55.32 174.158 55.448 174.403 55.544C174.649 55.6293 175.011 55.7413 175.491 55.88C176.131 56.0507 176.654 56.2267 177.059 56.408C177.475 56.5787 177.833 56.8347 178.131 57.176C178.43 57.5173 178.585 57.9707 178.595 58.536C178.595 59.0373 178.457 59.4853 178.179 59.88C177.902 60.2747 177.507 60.584 176.995 60.808C176.494 61.032 175.902 61.144 175.219 61.144ZM189.526 56.376C189.526 56.7067 189.505 57.0053 189.462 57.272H182.726C182.78 57.976 183.041 58.5413 183.51 58.968C183.98 59.3947 184.556 59.608 185.238 59.608C186.22 59.608 186.913 59.1973 187.318 58.376H189.286C189.02 59.1867 188.534 59.8533 187.83 60.376C187.137 60.888 186.273 61.144 185.238 61.144C184.396 61.144 183.638 60.9573 182.966 60.584C182.305 60.2 181.782 59.6667 181.398 58.984C181.025 58.2907 180.838 57.4907 180.838 56.584C180.838 55.6773 181.02 54.8827 181.382 54.2C181.756 53.5067 182.273 52.9733 182.934 52.6C183.606 52.2267 184.374 52.04 185.238 52.04C186.07 52.04 186.812 52.2213 187.462 52.584C188.113 52.9467 188.62 53.4587 188.982 54.12C189.345 54.7707 189.526 55.5227 189.526 56.376ZM187.622 55.8C187.612 55.128 187.372 54.5893 186.902 54.184C186.433 53.7787 185.852 53.576 185.158 53.576C184.529 53.576 183.99 53.7787 183.542 54.184C183.094 54.5787 182.828 55.1173 182.742 55.8H187.622ZM194.025 53.464C194.292 53.016 194.644 52.6693 195.081 52.424C195.529 52.168 196.057 52.04 196.665 52.04V53.928H196.201C195.487 53.928 194.943 54.1093 194.569 54.472C194.207 54.8347 194.025 55.464 194.025 56.36V61H192.201V52.184H194.025V53.464ZM202.422 61.144C201.729 61.144 201.105 61.0213 200.55 60.776C200.006 60.52 199.574 60.1787 199.254 59.752C198.934 59.3147 198.763 58.8293 198.742 58.296H200.63C200.662 58.6693 200.838 58.984 201.158 59.24C201.489 59.4853 201.899 59.608 202.39 59.608C202.902 59.608 203.297 59.512 203.574 59.32C203.862 59.1173 204.006 58.8613 204.006 58.552C204.006 58.2213 203.846 57.976 203.526 57.816C203.217 57.656 202.721 57.48 202.038 57.288C201.377 57.1067 200.838 56.9307 200.422 56.76C200.006 56.5893 199.643 56.328 199.334 55.976C199.035 55.624 198.886 55.16 198.886 54.584C198.886 54.1147 199.025 53.688 199.302 53.304C199.579 52.9093 199.974 52.6 200.486 52.376C201.009 52.152 201.606 52.04 202.278 52.04C203.281 52.04 204.086 52.296 204.694 52.808C205.313 53.3093 205.643 53.9973 205.686 54.872H203.862C203.83 54.4773 203.67 54.1627 203.382 53.928C203.094 53.6933 202.705 53.576 202.214 53.576C201.734 53.576 201.366 53.6667 201.11 53.848C200.854 54.0293 200.726 54.2693 200.726 54.568C200.726 54.8027 200.811 55 200.982 55.16C201.153 55.32 201.361 55.448 201.606 55.544C201.851 55.6293 202.214 55.7413 202.694 55.88C203.334 56.0507 203.857 56.2267 204.262 56.408C204.678 56.5787 205.035 56.8347 205.334 57.176C205.633 57.5173 205.787 57.9707 205.798 58.536C205.798 59.0373 205.659 59.4853 205.382 59.88C205.105 60.2747 204.71 60.584 204.198 60.808C203.697 61.032 203.105 61.144 202.422 61.144ZM217.237 52.04C217.92 52.04 218.522 52.1787 219.045 52.456C219.578 52.7227 219.994 53.0587 220.293 53.464V52.184H222.133V61.144C222.133 61.9547 221.962 62.6747 221.621 63.304C221.28 63.944 220.784 64.4453 220.133 64.808C219.493 65.1707 218.725 65.352 217.829 65.352C216.634 65.352 215.642 65.0693 214.853 64.504C214.064 63.9493 213.616 63.192 213.509 62.232H215.317C215.456 62.6907 215.749 63.0587 216.197 63.336C216.656 63.624 217.2 63.768 217.829 63.768C218.565 63.768 219.157 63.544 219.605 63.096C220.064 62.648 220.293 61.9973 220.293 61.144V59.672C219.984 60.088 219.562 60.44 219.029 60.728C218.506 61.0053 217.909 61.144 217.237 61.144C216.469 61.144 215.765 60.952 215.125 60.568C214.496 60.1733 213.994 59.6293 213.621 58.936C213.258 58.232 213.077 57.4373 213.077 56.552C213.077 55.6667 213.258 54.8827 213.621 54.2C213.994 53.5173 214.496 52.9893 215.125 52.616C215.765 52.232 216.469 52.04 217.237 52.04ZM220.293 56.584C220.293 55.976 220.165 55.448 219.909 55C219.664 54.552 219.338 54.2107 218.933 53.976C218.528 53.7413 218.09 53.624 217.621 53.624C217.152 53.624 216.714 53.7413 216.309 53.976C215.904 54.2 215.573 54.536 215.317 54.984C215.072 55.4213 214.949 55.944 214.949 56.552C214.949 57.16 215.072 57.6933 215.317 58.152C215.573 58.6107 215.904 58.9627 216.309 59.208C216.725 59.4427 217.162 59.56 217.621 59.56C218.09 59.56 218.528 59.4427 218.933 59.208C219.338 58.9733 219.664 58.632 219.909 58.184C220.165 57.7253 220.293 57.192 220.293 56.584ZM233.489 56.376C233.489 56.7067 233.467 57.0053 233.425 57.272H226.689C226.742 57.976 227.003 58.5413 227.473 58.968C227.942 59.3947 228.518 59.608 229.201 59.608C230.182 59.608 230.875 59.1973 231.281 58.376H233.249C232.982 59.1867 232.497 59.8533 231.793 60.376C231.099 60.888 230.235 61.144 229.201 61.144C228.358 61.144 227.601 60.9573 226.929 60.584C226.267 60.2 225.745 59.6667 225.361 58.984C224.987 58.2907 224.801 57.4907 224.801 56.584C224.801 55.6773 224.982 54.8827 225.345 54.2C225.718 53.5067 226.235 52.9733 226.897 52.6C227.569 52.2267 228.337 52.04 229.201 52.04C230.033 52.04 230.774 52.2213 231.425 52.584C232.075 52.9467 232.582 53.4587 232.945 54.12C233.307 54.7707 233.489 55.5227 233.489 56.376ZM231.585 55.8C231.574 55.128 231.334 54.5893 230.865 54.184C230.395 53.7787 229.814 53.576 229.121 53.576C228.491 53.576 227.953 53.7787 227.505 54.184C227.057 54.5787 226.79 55.1173 226.705 55.8H231.585ZM238.292 53.672V58.552C238.292 58.8827 238.366 59.1227 238.516 59.272C238.676 59.4107 238.942 59.48 239.316 59.48H240.436V61H238.996C238.174 61 237.545 60.808 237.108 60.424C236.67 60.04 236.452 59.416 236.452 58.552V53.672H235.412V52.184H236.452V49.992H238.292V52.184H240.436V53.672H238.292ZM33.2398 75.552C33.2398 74.6667 33.4211 73.8827 33.7838 73.2C34.1571 72.5173 34.6585 71.9893 35.2878 71.616C35.9278 71.232 36.6318 71.04 37.3998 71.04C38.0931 71.04 38.6958 71.1787 39.2078 71.456C39.7305 71.7227 40.1465 72.0587 40.4558 72.464V71.184H42.2958V80H40.4558V78.688C40.1465 79.104 39.7251 79.4507 39.1918 79.728C38.6585 80.0053 38.0505 80.144 37.3678 80.144C36.6105 80.144 35.9171 79.952 35.2878 79.568C34.6585 79.1733 34.1571 78.6293 33.7838 77.936C33.4211 77.232 33.2398 76.4373 33.2398 75.552ZM40.4558 75.584C40.4558 74.976 40.3278 74.448 40.0718 74C39.8265 73.552 39.5011 73.2107 39.0958 72.976C38.6905 72.7413 38.2531 72.624 37.7838 72.624C37.3145 72.624 36.8771 72.7413 36.4718 72.976C36.0665 73.2 35.7358 73.536 35.4798 73.984C35.2345 74.4213 35.1118 74.944 35.1118 75.552C35.1118 76.16 35.2345 76.6933 35.4798 77.152C35.7358 77.6107 36.0665 77.9627 36.4718 78.208C36.8878 78.4427 37.3251 78.56 37.7838 78.56C38.2531 78.56 38.6905 78.4427 39.0958 78.208C39.5011 77.9733 39.8265 77.632 40.0718 77.184C40.3278 76.7253 40.4558 76.192 40.4558 75.584ZM54.1598 71.04C54.8425 71.04 55.4451 71.1787 55.9678 71.456C56.5011 71.7227 56.9171 72.0587 57.2158 72.464V71.184H59.0558V80.144C59.0558 80.9547 58.8851 81.6747 58.5438 82.304C58.2025 82.944 57.7065 83.4453 57.0558 83.808C56.4158 84.1707 55.6478 84.352 54.7518 84.352C53.5571 84.352 52.5651 84.0693 51.7758 83.504C50.9865 82.9493 50.5385 82.192 50.4318 81.232H52.2398C52.3785 81.6907 52.6718 82.0587 53.1198 82.336C53.5785 82.624 54.1225 82.768 54.7518 82.768C55.4878 82.768 56.0798 82.544 56.5278 82.096C56.9865 81.648 57.2158 80.9973 57.2158 80.144V78.672C56.9065 79.088 56.4851 79.44 55.9518 79.728C55.4291 80.0053 54.8318 80.144 54.1598 80.144C53.3918 80.144 52.6878 79.952 52.0478 79.568C51.4185 79.1733 50.9171 78.6293 50.5438 77.936C50.1811 77.232 49.9998 76.4373 49.9998 75.552C49.9998 74.6667 50.1811 73.8827 50.5438 73.2C50.9171 72.5173 51.4185 71.9893 52.0478 71.616C52.6878 71.232 53.3918 71.04 54.1598 71.04ZM57.2158 75.584C57.2158 74.976 57.0878 74.448 56.8318 74C56.5865 73.552 56.2611 73.2107 55.8558 72.976C55.4505 72.7413 55.0131 72.624 54.5438 72.624C54.0745 72.624 53.6371 72.7413 53.2318 72.976C52.8265 73.2 52.4958 73.536 52.2398 73.984C51.9945 74.4213 51.8718 74.944 51.8718 75.552C51.8718 76.16 51.9945 76.6933 52.2398 77.152C52.4958 77.6107 52.8265 77.9627 53.2318 78.208C53.6478 78.4427 54.0851 78.56 54.5438 78.56C55.0131 78.56 55.4505 78.4427 55.8558 78.208C56.2611 77.9733 56.5865 77.632 56.8318 77.184C57.0878 76.7253 57.2158 76.192 57.2158 75.584ZM66.1556 80.144C65.3236 80.144 64.5716 79.9573 63.8996 79.584C63.2276 79.2 62.6996 78.6667 62.3156 77.984C61.9316 77.2907 61.7396 76.4907 61.7396 75.584C61.7396 74.688 61.9369 73.8933 62.3316 73.2C62.7262 72.5067 63.2649 71.9733 63.9476 71.6C64.6302 71.2267 65.3929 71.04 66.2356 71.04C67.0782 71.04 67.8409 71.2267 68.5236 71.6C69.2062 71.9733 69.7449 72.5067 70.1396 73.2C70.5342 73.8933 70.7316 74.688 70.7316 75.584C70.7316 76.48 70.5289 77.2747 70.1236 77.968C69.7182 78.6613 69.1636 79.2 68.4596 79.584C67.7662 79.9573 66.9982 80.144 66.1556 80.144ZM66.1556 78.56C66.6249 78.56 67.0622 78.448 67.4676 78.224C67.8836 78 68.2196 77.664 68.4756 77.216C68.7316 76.768 68.8596 76.224 68.8596 75.584C68.8596 74.944 68.7369 74.4053 68.4916 73.968C68.2462 73.52 67.9209 73.184 67.5156 72.96C67.1102 72.736 66.6729 72.624 66.2036 72.624C65.7342 72.624 65.2969 72.736 64.8916 72.96C64.4969 73.184 64.1822 73.52 63.9476 73.968C63.7129 74.4053 63.5956 74.944 63.5956 75.584C63.5956 76.5333 63.8356 77.2693 64.3156 77.792C64.8062 78.304 65.4196 78.56 66.1556 78.56ZM77.2387 80.144C76.4067 80.144 75.6547 79.9573 74.9827 79.584C74.3107 79.2 73.7827 78.6667 73.3987 77.984C73.0147 77.2907 72.8227 76.4907 72.8227 75.584C72.8227 74.688 73.02 73.8933 73.4147 73.2C73.8094 72.5067 74.348 71.9733 75.0307 71.6C75.7134 71.2267 76.476 71.04 77.3187 71.04C78.1614 71.04 78.924 71.2267 79.6067 71.6C80.2894 71.9733 80.828 72.5067 81.2227 73.2C81.6174 73.8933 81.8147 74.688 81.8147 75.584C81.8147 76.48 81.612 77.2747 81.2067 77.968C80.8014 78.6613 80.2467 79.2 79.5427 79.584C78.8494 79.9573 78.0814 80.144 77.2387 80.144ZM77.2387 78.56C77.708 78.56 78.1454 78.448 78.5507 78.224C78.9667 78 79.3027 77.664 79.5587 77.216C79.8147 76.768 79.9427 76.224 79.9427 75.584C79.9427 74.944 79.82 74.4053 79.5747 73.968C79.3294 73.52 79.004 73.184 78.5987 72.96C78.1934 72.736 77.756 72.624 77.2867 72.624C76.8174 72.624 76.38 72.736 75.9747 72.96C75.58 73.184 75.2654 73.52 75.0307 73.968C74.796 74.4053 74.6787 74.944 74.6787 75.584C74.6787 76.5333 74.9187 77.2693 75.3987 77.792C75.8894 78.304 76.5027 78.56 77.2387 78.56ZM83.8898 75.552C83.8898 74.6667 84.0711 73.8827 84.4338 73.2C84.8071 72.5173 85.3085 71.9893 85.9378 71.616C86.5778 71.232 87.2871 71.04 88.0658 71.04C88.6418 71.04 89.2071 71.168 89.7618 71.424C90.3271 71.6693 90.7751 72 91.1058 72.416V68.16H92.9458V80H91.1058V78.672C90.8071 79.0987 90.3911 79.4507 89.8578 79.728C89.3351 80.0053 88.7325 80.144 88.0498 80.144C87.2818 80.144 86.5778 79.952 85.9378 79.568C85.3085 79.1733 84.8071 78.6293 84.4338 77.936C84.0711 77.232 83.8898 76.4373 83.8898 75.552ZM91.1058 75.584C91.1058 74.976 90.9778 74.448 90.7218 74C90.4765 73.552 90.1511 73.2107 89.7458 72.976C89.3405 72.7413 88.9031 72.624 88.4338 72.624C87.9645 72.624 87.5271 72.7413 87.1218 72.976C86.7165 73.2 86.3858 73.536 86.1298 73.984C85.8845 74.4213 85.7618 74.944 85.7618 75.552C85.7618 76.16 85.8845 76.6933 86.1298 77.152C86.3858 77.6107 86.7165 77.9627 87.1218 78.208C87.5378 78.4427 87.9751 78.56 88.4338 78.56C88.9031 78.56 89.3405 78.4427 89.7458 78.208C90.1511 77.9733 90.4765 77.632 90.7218 77.184C90.9778 76.7253 91.1058 76.192 91.1058 75.584ZM105.706 71.04C106.399 71.04 107.018 71.184 107.562 71.472C108.116 71.76 108.548 72.1867 108.858 72.752C109.167 73.3173 109.322 74 109.322 74.8V80H107.514V75.072C107.514 74.2827 107.316 73.68 106.922 73.264C106.527 72.8373 105.988 72.624 105.306 72.624C104.623 72.624 104.079 72.8373 103.674 73.264C103.279 73.68 103.082 74.2827 103.082 75.072V80H101.258V71.184H103.082V72.192C103.38 71.8293 103.759 71.5467 104.218 71.344C104.687 71.1413 105.183 71.04 105.706 71.04ZM113.456 70.016C113.126 70.016 112.848 69.904 112.624 69.68C112.4 69.456 112.288 69.1787 112.288 68.848C112.288 68.5173 112.4 68.24 112.624 68.016C112.848 67.792 113.126 67.68 113.456 67.68C113.776 67.68 114.048 67.792 114.272 68.016C114.496 68.24 114.608 68.5173 114.608 68.848C114.608 69.1787 114.496 69.456 114.272 69.68C114.048 69.904 113.776 70.016 113.456 70.016ZM114.352 71.184V80H112.528V71.184H114.352ZM121.179 71.04C121.862 71.04 122.465 71.1787 122.987 71.456C123.521 71.7227 123.937 72.0587 124.235 72.464V71.184H126.075V80.144C126.075 80.9547 125.905 81.6747 125.563 82.304C125.222 82.944 124.726 83.4453 124.075 83.808C123.435 84.1707 122.667 84.352 121.771 84.352C120.577 84.352 119.585 84.0693 118.795 83.504C118.006 82.9493 117.558 82.192 117.451 81.232H119.259C119.398 81.6907 119.691 82.0587 120.139 82.336C120.598 82.624 121.142 82.768 121.771 82.768C122.507 82.768 123.099 82.544 123.547 82.096C124.006 81.648 124.235 80.9973 124.235 80.144V78.672C123.926 79.088 123.505 79.44 122.971 79.728C122.449 80.0053 121.851 80.144 121.179 80.144C120.411 80.144 119.707 79.952 119.067 79.568C118.438 79.1733 117.937 78.6293 117.563 77.936C117.201 77.232 117.019 76.4373 117.019 75.552C117.019 74.6667 117.201 73.8827 117.563 73.2C117.937 72.5173 118.438 71.9893 119.067 71.616C119.707 71.232 120.411 71.04 121.179 71.04ZM124.235 75.584C124.235 74.976 124.107 74.448 123.851 74C123.606 73.552 123.281 73.2107 122.875 72.976C122.47 72.7413 122.033 72.624 121.563 72.624C121.094 72.624 120.657 72.7413 120.251 72.976C119.846 73.2 119.515 73.536 119.259 73.984C119.014 74.4213 118.891 74.944 118.891 75.552C118.891 76.16 119.014 76.6933 119.259 77.152C119.515 77.6107 119.846 77.9627 120.251 78.208C120.667 78.4427 121.105 78.56 121.563 78.56C122.033 78.56 122.47 78.4427 122.875 78.208C123.281 77.9733 123.606 77.632 123.851 77.184C124.107 76.7253 124.235 76.192 124.235 75.584ZM133.911 71.04C134.583 71.04 135.18 71.184 135.703 71.472C136.236 71.76 136.652 72.1867 136.951 72.752C137.26 73.3173 137.415 74 137.415 74.8V80H135.607V75.072C135.607 74.2827 135.41 73.68 135.015 73.264C134.62 72.8373 134.082 72.624 133.399 72.624C132.716 72.624 132.172 72.8373 131.767 73.264C131.372 73.68 131.175 74.2827 131.175 75.072V80H129.351V68.16H131.175V72.208C131.484 71.8347 131.874 71.5467 132.343 71.344C132.823 71.1413 133.346 71.04 133.911 71.04ZM142.75 72.672V77.552C142.75 77.8827 142.824 78.1227 142.974 78.272C143.134 78.4107 143.4 78.48 143.774 78.48H144.894V80H143.454C142.632 80 142.003 79.808 141.566 79.424C141.128 79.04 140.91 78.416 140.91 77.552V72.672H139.87V71.184H140.91V68.992H142.75V71.184H144.894V72.672H142.75ZM147.743 68.88H149.727L148.047 72.688H146.767L147.743 68.88ZM155.41 80.144C154.716 80.144 154.092 80.0213 153.538 79.776C152.994 79.52 152.562 79.1787 152.242 78.752C151.922 78.3147 151.751 77.8293 151.73 77.296H153.618C153.65 77.6693 153.826 77.984 154.146 78.24C154.476 78.4853 154.887 78.608 155.378 78.608C155.89 78.608 156.284 78.512 156.562 78.32C156.85 78.1173 156.994 77.8613 156.994 77.552C156.994 77.2213 156.834 76.976 156.514 76.816C156.204 76.656 155.708 76.48 155.026 76.288C154.364 76.1067 153.826 75.9307 153.41 75.76C152.994 75.5893 152.631 75.328 152.322 74.976C152.023 74.624 151.874 74.16 151.874 73.584C151.874 73.1147 152.012 72.688 152.29 72.304C152.567 71.9093 152.962 71.6 153.474 71.376C153.996 71.152 154.594 71.04 155.266 71.04C156.268 71.04 157.074 71.296 157.682 71.808C158.3 72.3093 158.631 72.9973 158.674 73.872H156.85C156.818 73.4773 156.658 73.1627 156.37 72.928C156.082 72.6933 155.692 72.576 155.202 72.576C154.722 72.576 154.354 72.6667 154.098 72.848C153.842 73.0293 153.714 73.2693 153.714 73.568C153.714 73.8027 153.799 74 153.97 74.16C154.14 74.32 154.348 74.448 154.594 74.544C154.839 74.6293 155.202 74.7413 155.682 74.88C156.322 75.0507 156.844 75.2267 157.25 75.408C157.666 75.5787 158.023 75.8347 158.322 76.176C158.62 76.5173 158.775 76.9707 158.786 77.536C158.786 78.0373 158.647 78.4853 158.37 78.88C158.092 79.2747 157.698 79.584 157.186 79.808C156.684 80.032 156.092 80.144 155.41 80.144ZM169.873 80.144C169.179 80.144 168.555 80.0213 168.001 79.776C167.457 79.52 167.025 79.1787 166.705 78.752C166.385 78.3147 166.214 77.8293 166.193 77.296H168.081C168.113 77.6693 168.289 77.984 168.609 78.24C168.939 78.4853 169.35 78.608 169.841 78.608C170.353 78.608 170.747 78.512 171.025 78.32C171.313 78.1173 171.457 77.8613 171.457 77.552C171.457 77.2213 171.297 76.976 170.977 76.816C170.667 76.656 170.171 76.48 169.489 76.288C168.827 76.1067 168.289 75.9307 167.873 75.76C167.457 75.5893 167.094 75.328 166.785 74.976C166.486 74.624 166.337 74.16 166.337 73.584C166.337 73.1147 166.475 72.688 166.753 72.304C167.03 71.9093 167.425 71.6 167.937 71.376C168.459 71.152 169.057 71.04 169.729 71.04C170.731 71.04 171.537 71.296 172.145 71.808C172.763 72.3093 173.094 72.9973 173.137 73.872H171.313C171.281 73.4773 171.121 73.1627 170.833 72.928C170.545 72.6933 170.155 72.576 169.665 72.576C169.185 72.576 168.817 72.6667 168.561 72.848C168.305 73.0293 168.177 73.2693 168.177 73.568C168.177 73.8027 168.262 74 168.433 74.16C168.603 74.32 168.811 74.448 169.057 74.544C169.302 74.6293 169.665 74.7413 170.145 74.88C170.785 75.0507 171.307 75.2267 171.713 75.408C172.129 75.5787 172.486 75.8347 172.785 76.176C173.083 76.5173 173.238 76.9707 173.249 77.536C173.249 78.0373 173.11 78.4853 172.833 78.88C172.555 79.2747 172.161 79.584 171.649 79.808C171.147 80.032 170.555 80.144 169.873 80.144ZM177.924 68.16V80H176.1V68.16H177.924ZM189.278 75.376C189.278 75.7067 189.257 76.0053 189.214 76.272H182.478C182.532 76.976 182.793 77.5413 183.262 77.968C183.732 78.3947 184.308 78.608 184.99 78.608C185.972 78.608 186.665 78.1973 187.07 77.376H189.038C188.772 78.1867 188.286 78.8533 187.582 79.376C186.889 79.888 186.025 80.144 184.99 80.144C184.148 80.144 183.39 79.9573 182.718 79.584C182.057 79.2 181.534 78.6667 181.15 77.984C180.777 77.2907 180.59 76.4907 180.59 75.584C180.59 74.6773 180.772 73.8827 181.134 73.2C181.508 72.5067 182.025 71.9733 182.686 71.6C183.358 71.2267 184.126 71.04 184.99 71.04C185.822 71.04 186.564 71.2213 187.214 71.584C187.865 71.9467 188.372 72.4587 188.734 73.12C189.097 73.7707 189.278 74.5227 189.278 75.376ZM187.374 74.8C187.364 74.128 187.124 73.5893 186.654 73.184C186.185 72.7787 185.604 72.576 184.91 72.576C184.281 72.576 183.742 72.7787 183.294 73.184C182.846 73.5787 182.58 74.1173 182.494 74.8H187.374ZM200.033 75.376C200.033 75.7067 200.012 76.0053 199.969 76.272H193.233C193.287 76.976 193.548 77.5413 194.017 77.968C194.487 78.3947 195.063 78.608 195.745 78.608C196.727 78.608 197.42 78.1973 197.825 77.376H199.793C199.527 78.1867 199.041 78.8533 198.337 79.376C197.644 79.888 196.78 80.144 195.745 80.144C194.903 80.144 194.145 79.9573 193.473 79.584C192.812 79.2 192.289 78.6667 191.905 77.984C191.532 77.2907 191.345 76.4907 191.345 75.584C191.345 74.6773 191.527 73.8827 191.889 73.2C192.263 72.5067 192.78 71.9733 193.441 71.6C194.113 71.2267 194.881 71.04 195.745 71.04C196.577 71.04 197.319 71.2213 197.969 71.584C198.62 71.9467 199.127 72.4587 199.489 73.12C199.852 73.7707 200.033 74.5227 200.033 75.376ZM198.129 74.8C198.119 74.128 197.879 73.5893 197.409 73.184C196.94 72.7787 196.359 72.576 195.665 72.576C195.036 72.576 194.497 72.7787 194.049 73.184C193.601 73.5787 193.335 74.1173 193.249 74.8H198.129ZM204.532 72.48C204.842 72.0747 205.263 71.7333 205.796 71.456C206.33 71.1787 206.932 71.04 207.604 71.04C208.372 71.04 209.071 71.232 209.7 71.616C210.34 71.9893 210.842 72.5173 211.204 73.2C211.567 73.8827 211.748 74.6667 211.748 75.552C211.748 76.4373 211.567 77.232 211.204 77.936C210.842 78.6293 210.34 79.1733 209.7 79.568C209.071 79.952 208.372 80.144 207.604 80.144C206.932 80.144 206.335 80.0107 205.812 79.744C205.29 79.4667 204.863 79.1253 204.532 78.72V84.192H202.708V71.184H204.532V72.48ZM209.892 75.552C209.892 74.944 209.764 74.4213 209.508 73.984C209.263 73.536 208.932 73.2 208.516 72.976C208.111 72.7413 207.674 72.624 207.204 72.624C206.746 72.624 206.308 72.7413 205.892 72.976C205.487 73.2107 205.156 73.552 204.9 74C204.655 74.448 204.532 74.976 204.532 75.584C204.532 76.192 204.655 76.7253 204.9 77.184C205.156 77.632 205.487 77.9733 205.892 78.208C206.308 78.4427 206.746 78.56 207.204 78.56C207.674 78.56 208.111 78.4427 208.516 78.208C208.932 77.9627 209.263 77.6107 209.508 77.152C209.764 76.6933 209.892 76.16 209.892 75.552Z" fill="black"/>
<defs>
<radialGradient id="paint0_radial" cx="0" cy="0" r="1" gradientUnits="userSpaceOnUse" gradientTransform="translate(129.059 21.6142) scale(21.481 21.75)">
<stop offset="2.23767e-07" stop-color="#8485E0"/>
<stop offset="1" stop-color="#7680FC"/>
</radialGradient>
<clipPath id="clip0">
<rect width="43.2287" height="43.2287" fill="white" transform="translate(107.445)"/>
</clipPath>
</defs>
</svg>
