<svg width="90" height="52" viewBox="0 0 90 52" fill="none" xmlns="http://www.w3.org/2000/svg">
<path d="M35.144 0.455998V34.872C35.144 40.2 33.632 44.304 30.608 47.184C27.632 50.064 23.6 51.504 18.512 51.504C13.184 51.504 8.912 49.992 5.696 46.968C2.48 43.944 0.872 39.648 0.872 34.08H13.112C13.112 36.192 13.544 37.8 14.408 38.904C15.272 39.96 16.52 40.488 18.152 40.488C19.64 40.488 20.792 40.008 21.608 39.048C22.424 38.088 22.832 36.696 22.832 34.872V0.455998H35.144ZM89.729 0.455998V51H77.417V20.688L66.113 51H56.177L44.801 20.616V51H32.489V0.455998H47.033L61.217 35.448L75.257 0.455998H89.729Z" fill="black"/>
</svg>
